G04 #@! TF.FileFunction,Legend,Top*
%FSLAX46Y46*%
G04 Gerber Fmt 4.6, Leading zero omitted, Abs format (unit mm)*
G04 Created by KiCad (PCBNEW 4.0.4+e1-6308~48~ubuntu15.10.1-stable) date Thu Dec  8 14:38:08 2016*
%MOMM*%
%LPD*%
G01*
G04 APERTURE LIST*
%ADD10C,0.100000*%
%ADD11C,0.300000*%
%ADD12C,0.150000*%
%ADD13C,0.381000*%
%ADD14C,0.304800*%
G04 APERTURE END LIST*
D10*
D11*
X90784001Y-94883857D02*
X90998287Y-94955286D01*
X91069715Y-95026714D01*
X91141144Y-95169571D01*
X91141144Y-95383857D01*
X91069715Y-95526714D01*
X90998287Y-95598143D01*
X90855429Y-95669571D01*
X90284001Y-95669571D01*
X90284001Y-94169571D01*
X90784001Y-94169571D01*
X90926858Y-94241000D01*
X90998287Y-94312429D01*
X91069715Y-94455286D01*
X91069715Y-94598143D01*
X90998287Y-94741000D01*
X90926858Y-94812429D01*
X90784001Y-94883857D01*
X90284001Y-94883857D01*
X91998287Y-95669571D02*
X91855429Y-95598143D01*
X91784001Y-95526714D01*
X91712572Y-95383857D01*
X91712572Y-94955286D01*
X91784001Y-94812429D01*
X91855429Y-94741000D01*
X91998287Y-94669571D01*
X92212572Y-94669571D01*
X92355429Y-94741000D01*
X92426858Y-94812429D01*
X92498287Y-94955286D01*
X92498287Y-95383857D01*
X92426858Y-95526714D01*
X92355429Y-95598143D01*
X92212572Y-95669571D01*
X91998287Y-95669571D01*
X93141144Y-95669571D02*
X93141144Y-94169571D01*
X93141144Y-94741000D02*
X93284001Y-94669571D01*
X93569715Y-94669571D01*
X93712572Y-94741000D01*
X93784001Y-94812429D01*
X93855430Y-94955286D01*
X93855430Y-95383857D01*
X93784001Y-95526714D01*
X93712572Y-95598143D01*
X93569715Y-95669571D01*
X93284001Y-95669571D01*
X93141144Y-95598143D01*
X95141144Y-95669571D02*
X95141144Y-94883857D01*
X95069715Y-94741000D01*
X94926858Y-94669571D01*
X94641144Y-94669571D01*
X94498287Y-94741000D01*
X95141144Y-95598143D02*
X94998287Y-95669571D01*
X94641144Y-95669571D01*
X94498287Y-95598143D01*
X94426858Y-95455286D01*
X94426858Y-95312429D01*
X94498287Y-95169571D01*
X94641144Y-95098143D01*
X94998287Y-95098143D01*
X95141144Y-95026714D01*
X96498287Y-95598143D02*
X96355430Y-95669571D01*
X96069716Y-95669571D01*
X95926858Y-95598143D01*
X95855430Y-95526714D01*
X95784001Y-95383857D01*
X95784001Y-94955286D01*
X95855430Y-94812429D01*
X95926858Y-94741000D01*
X96069716Y-94669571D01*
X96355430Y-94669571D01*
X96498287Y-94741000D01*
X97141144Y-95669571D02*
X97141144Y-94169571D01*
X97784001Y-95669571D02*
X97784001Y-94883857D01*
X97712572Y-94741000D01*
X97569715Y-94669571D01*
X97355430Y-94669571D01*
X97212572Y-94741000D01*
X97141144Y-94812429D01*
X99069715Y-95598143D02*
X98926858Y-95669571D01*
X98641144Y-95669571D01*
X98498287Y-95598143D01*
X98426858Y-95455286D01*
X98426858Y-94883857D01*
X98498287Y-94741000D01*
X98641144Y-94669571D01*
X98926858Y-94669571D01*
X99069715Y-94741000D01*
X99141144Y-94883857D01*
X99141144Y-95026714D01*
X98426858Y-95169571D01*
X99712572Y-95598143D02*
X99855429Y-95669571D01*
X100141144Y-95669571D01*
X100284001Y-95598143D01*
X100355429Y-95455286D01*
X100355429Y-95383857D01*
X100284001Y-95241000D01*
X100141144Y-95169571D01*
X99926858Y-95169571D01*
X99784001Y-95098143D01*
X99712572Y-94955286D01*
X99712572Y-94883857D01*
X99784001Y-94741000D01*
X99926858Y-94669571D01*
X100141144Y-94669571D01*
X100284001Y-94741000D01*
X100784001Y-94669571D02*
X101355430Y-94669571D01*
X100998287Y-94169571D02*
X100998287Y-95455286D01*
X101069715Y-95598143D01*
X101212573Y-95669571D01*
X101355430Y-95669571D01*
X102784001Y-94169571D02*
X103284001Y-95669571D01*
X103784001Y-94169571D01*
X105069715Y-95669571D02*
X104212572Y-95669571D01*
X104641144Y-95669571D02*
X104641144Y-94169571D01*
X104498287Y-94383857D01*
X104355429Y-94526714D01*
X104212572Y-94598143D01*
X105712572Y-95526714D02*
X105784000Y-95598143D01*
X105712572Y-95669571D01*
X105641143Y-95598143D01*
X105712572Y-95526714D01*
X105712572Y-95669571D01*
X106712572Y-94169571D02*
X106855429Y-94169571D01*
X106998286Y-94241000D01*
X107069715Y-94312429D01*
X107141144Y-94455286D01*
X107212572Y-94741000D01*
X107212572Y-95098143D01*
X107141144Y-95383857D01*
X107069715Y-95526714D01*
X106998286Y-95598143D01*
X106855429Y-95669571D01*
X106712572Y-95669571D01*
X106569715Y-95598143D01*
X106498286Y-95526714D01*
X106426858Y-95383857D01*
X106355429Y-95098143D01*
X106355429Y-94741000D01*
X106426858Y-94455286D01*
X106498286Y-94312429D01*
X106569715Y-94241000D01*
X106712572Y-94169571D01*
X108998286Y-95098143D02*
X110141143Y-95098143D01*
X111998286Y-95669571D02*
X111998286Y-94169571D01*
X112355429Y-94169571D01*
X112569714Y-94241000D01*
X112712572Y-94383857D01*
X112784000Y-94526714D01*
X112855429Y-94812429D01*
X112855429Y-95026714D01*
X112784000Y-95312429D01*
X112712572Y-95455286D01*
X112569714Y-95598143D01*
X112355429Y-95669571D01*
X111998286Y-95669571D01*
X114069714Y-95598143D02*
X113926857Y-95669571D01*
X113641143Y-95669571D01*
X113498286Y-95598143D01*
X113426857Y-95455286D01*
X113426857Y-94883857D01*
X113498286Y-94741000D01*
X113641143Y-94669571D01*
X113926857Y-94669571D01*
X114069714Y-94741000D01*
X114141143Y-94883857D01*
X114141143Y-95026714D01*
X113426857Y-95169571D01*
X114712571Y-95598143D02*
X114855428Y-95669571D01*
X115141143Y-95669571D01*
X115284000Y-95598143D01*
X115355428Y-95455286D01*
X115355428Y-95383857D01*
X115284000Y-95241000D01*
X115141143Y-95169571D01*
X114926857Y-95169571D01*
X114784000Y-95098143D01*
X114712571Y-94955286D01*
X114712571Y-94883857D01*
X114784000Y-94741000D01*
X114926857Y-94669571D01*
X115141143Y-94669571D01*
X115284000Y-94741000D01*
X115998286Y-95669571D02*
X115998286Y-94669571D01*
X115998286Y-94169571D02*
X115926857Y-94241000D01*
X115998286Y-94312429D01*
X116069714Y-94241000D01*
X115998286Y-94169571D01*
X115998286Y-94312429D01*
X117355429Y-94669571D02*
X117355429Y-95883857D01*
X117284000Y-96026714D01*
X117212572Y-96098143D01*
X117069715Y-96169571D01*
X116855429Y-96169571D01*
X116712572Y-96098143D01*
X117355429Y-95598143D02*
X117212572Y-95669571D01*
X116926858Y-95669571D01*
X116784000Y-95598143D01*
X116712572Y-95526714D01*
X116641143Y-95383857D01*
X116641143Y-94955286D01*
X116712572Y-94812429D01*
X116784000Y-94741000D01*
X116926858Y-94669571D01*
X117212572Y-94669571D01*
X117355429Y-94741000D01*
X118069715Y-94669571D02*
X118069715Y-95669571D01*
X118069715Y-94812429D02*
X118141143Y-94741000D01*
X118284001Y-94669571D01*
X118498286Y-94669571D01*
X118641143Y-94741000D01*
X118712572Y-94883857D01*
X118712572Y-95669571D01*
X119998286Y-95598143D02*
X119855429Y-95669571D01*
X119569715Y-95669571D01*
X119426858Y-95598143D01*
X119355429Y-95455286D01*
X119355429Y-94883857D01*
X119426858Y-94741000D01*
X119569715Y-94669571D01*
X119855429Y-94669571D01*
X119998286Y-94741000D01*
X120069715Y-94883857D01*
X120069715Y-95026714D01*
X119355429Y-95169571D01*
X121355429Y-95669571D02*
X121355429Y-94169571D01*
X121355429Y-95598143D02*
X121212572Y-95669571D01*
X120926858Y-95669571D01*
X120784000Y-95598143D01*
X120712572Y-95526714D01*
X120641143Y-95383857D01*
X120641143Y-94955286D01*
X120712572Y-94812429D01*
X120784000Y-94741000D01*
X120926858Y-94669571D01*
X121212572Y-94669571D01*
X121355429Y-94741000D01*
X123212572Y-95669571D02*
X123212572Y-94169571D01*
X123212572Y-94741000D02*
X123355429Y-94669571D01*
X123641143Y-94669571D01*
X123784000Y-94741000D01*
X123855429Y-94812429D01*
X123926858Y-94955286D01*
X123926858Y-95383857D01*
X123855429Y-95526714D01*
X123784000Y-95598143D01*
X123641143Y-95669571D01*
X123355429Y-95669571D01*
X123212572Y-95598143D01*
X124426858Y-94669571D02*
X124784001Y-95669571D01*
X125141143Y-94669571D02*
X124784001Y-95669571D01*
X124641143Y-96026714D01*
X124569715Y-96098143D01*
X124426858Y-96169571D01*
X126784000Y-95241000D02*
X127498286Y-95241000D01*
X126641143Y-95669571D02*
X127141143Y-94169571D01*
X127641143Y-95669571D01*
X128141143Y-94669571D02*
X128141143Y-95669571D01*
X128141143Y-94812429D02*
X128212571Y-94741000D01*
X128355429Y-94669571D01*
X128569714Y-94669571D01*
X128712571Y-94741000D01*
X128784000Y-94883857D01*
X128784000Y-95669571D01*
X130141143Y-94669571D02*
X130141143Y-95883857D01*
X130069714Y-96026714D01*
X129998286Y-96098143D01*
X129855429Y-96169571D01*
X129641143Y-96169571D01*
X129498286Y-96098143D01*
X130141143Y-95598143D02*
X129998286Y-95669571D01*
X129712572Y-95669571D01*
X129569714Y-95598143D01*
X129498286Y-95526714D01*
X129426857Y-95383857D01*
X129426857Y-94955286D01*
X129498286Y-94812429D01*
X129569714Y-94741000D01*
X129712572Y-94669571D01*
X129998286Y-94669571D01*
X130141143Y-94741000D01*
X131426857Y-95598143D02*
X131284000Y-95669571D01*
X130998286Y-95669571D01*
X130855429Y-95598143D01*
X130784000Y-95455286D01*
X130784000Y-94883857D01*
X130855429Y-94741000D01*
X130998286Y-94669571D01*
X131284000Y-94669571D01*
X131426857Y-94741000D01*
X131498286Y-94883857D01*
X131498286Y-95026714D01*
X130784000Y-95169571D01*
X132355429Y-95669571D02*
X132212571Y-95598143D01*
X132141143Y-95455286D01*
X132141143Y-94169571D01*
X133641143Y-95669571D02*
X132926857Y-95669571D01*
X132926857Y-94169571D01*
X134141143Y-95669571D02*
X134141143Y-94169571D01*
X134641143Y-95241000D01*
X135141143Y-94169571D01*
X135141143Y-95669571D01*
X102712571Y-97219571D02*
X102998285Y-98219571D01*
X103283999Y-97505286D01*
X103569714Y-98219571D01*
X103855428Y-97219571D01*
X104284000Y-97219571D02*
X104569714Y-98219571D01*
X104855428Y-97505286D01*
X105141143Y-98219571D01*
X105426857Y-97219571D01*
X105855429Y-97219571D02*
X106141143Y-98219571D01*
X106426857Y-97505286D01*
X106712572Y-98219571D01*
X106998286Y-97219571D01*
X107569715Y-98076714D02*
X107641143Y-98148143D01*
X107569715Y-98219571D01*
X107498286Y-98148143D01*
X107569715Y-98076714D01*
X107569715Y-98219571D01*
X108926858Y-98219571D02*
X108926858Y-97433857D01*
X108855429Y-97291000D01*
X108712572Y-97219571D01*
X108426858Y-97219571D01*
X108284001Y-97291000D01*
X108926858Y-98148143D02*
X108784001Y-98219571D01*
X108426858Y-98219571D01*
X108284001Y-98148143D01*
X108212572Y-98005286D01*
X108212572Y-97862429D01*
X108284001Y-97719571D01*
X108426858Y-97648143D01*
X108784001Y-97648143D01*
X108926858Y-97576714D01*
X109641144Y-97219571D02*
X109641144Y-98219571D01*
X109641144Y-97362429D02*
X109712572Y-97291000D01*
X109855430Y-97219571D01*
X110069715Y-97219571D01*
X110212572Y-97291000D01*
X110284001Y-97433857D01*
X110284001Y-98219571D01*
X111641144Y-97219571D02*
X111641144Y-98433857D01*
X111569715Y-98576714D01*
X111498287Y-98648143D01*
X111355430Y-98719571D01*
X111141144Y-98719571D01*
X110998287Y-98648143D01*
X111641144Y-98148143D02*
X111498287Y-98219571D01*
X111212573Y-98219571D01*
X111069715Y-98148143D01*
X110998287Y-98076714D01*
X110926858Y-97933857D01*
X110926858Y-97505286D01*
X110998287Y-97362429D01*
X111069715Y-97291000D01*
X111212573Y-97219571D01*
X111498287Y-97219571D01*
X111641144Y-97291000D01*
X112926858Y-98148143D02*
X112784001Y-98219571D01*
X112498287Y-98219571D01*
X112355430Y-98148143D01*
X112284001Y-98005286D01*
X112284001Y-97433857D01*
X112355430Y-97291000D01*
X112498287Y-97219571D01*
X112784001Y-97219571D01*
X112926858Y-97291000D01*
X112998287Y-97433857D01*
X112998287Y-97576714D01*
X112284001Y-97719571D01*
X113855430Y-98219571D02*
X113712572Y-98148143D01*
X113641144Y-98005286D01*
X113641144Y-96719571D01*
X114426858Y-97648143D02*
X115569715Y-97648143D01*
X116498287Y-98219571D02*
X116355429Y-98148143D01*
X116284001Y-98005286D01*
X116284001Y-96719571D01*
X117069715Y-98219571D02*
X117069715Y-97219571D01*
X117069715Y-97362429D02*
X117141143Y-97291000D01*
X117284001Y-97219571D01*
X117498286Y-97219571D01*
X117641143Y-97291000D01*
X117712572Y-97433857D01*
X117712572Y-98219571D01*
X117712572Y-97433857D02*
X117784001Y-97291000D01*
X117926858Y-97219571D01*
X118141143Y-97219571D01*
X118284001Y-97291000D01*
X118355429Y-97433857D01*
X118355429Y-98219571D01*
X119069715Y-98076714D02*
X119141143Y-98148143D01*
X119069715Y-98219571D01*
X118998286Y-98148143D01*
X119069715Y-98076714D01*
X119069715Y-98219571D01*
X120426858Y-98148143D02*
X120284001Y-98219571D01*
X119998287Y-98219571D01*
X119855429Y-98148143D01*
X119784001Y-98076714D01*
X119712572Y-97933857D01*
X119712572Y-97505286D01*
X119784001Y-97362429D01*
X119855429Y-97291000D01*
X119998287Y-97219571D01*
X120284001Y-97219571D01*
X120426858Y-97291000D01*
X121284001Y-98219571D02*
X121141143Y-98148143D01*
X121069715Y-98076714D01*
X120998286Y-97933857D01*
X120998286Y-97505286D01*
X121069715Y-97362429D01*
X121141143Y-97291000D01*
X121284001Y-97219571D01*
X121498286Y-97219571D01*
X121641143Y-97291000D01*
X121712572Y-97362429D01*
X121784001Y-97505286D01*
X121784001Y-97933857D01*
X121712572Y-98076714D01*
X121641143Y-98148143D01*
X121498286Y-98219571D01*
X121284001Y-98219571D01*
X122426858Y-98219571D02*
X122426858Y-97219571D01*
X122426858Y-97362429D02*
X122498286Y-97291000D01*
X122641144Y-97219571D01*
X122855429Y-97219571D01*
X122998286Y-97291000D01*
X123069715Y-97433857D01*
X123069715Y-98219571D01*
X123069715Y-97433857D02*
X123141144Y-97291000D01*
X123284001Y-97219571D01*
X123498286Y-97219571D01*
X123641144Y-97291000D01*
X123712572Y-97433857D01*
X123712572Y-98219571D01*
D12*
X129745000Y-89330000D02*
X133145000Y-89330000D01*
X129747944Y-89327056D02*
G75*
G02X131445000Y-85230000I1697056J1697056D01*
G01*
X133142056Y-89327056D02*
G75*
G03X131445000Y-85230000I-1697056J1697056D01*
G01*
X141048000Y-90693000D02*
X144448000Y-90693000D01*
X141048000Y-91453000D02*
X144448000Y-91453000D01*
X137983000Y-87183000D02*
X147513000Y-87183000D01*
X147513000Y-87183000D02*
X147513000Y-96713000D01*
X147513000Y-96713000D02*
X137983000Y-96713000D01*
X137983000Y-96713000D02*
X137983000Y-87183000D01*
X144549735Y-91073000D02*
G75*
G03X144549735Y-91073000I-1801735J0D01*
G01*
D13*
X154635200Y-95656400D02*
X154635200Y-52476400D01*
X154635200Y-52476400D02*
X167335200Y-52476400D01*
X167335200Y-52476400D02*
X167335200Y-95656400D01*
X167335200Y-95656400D02*
X154635200Y-95656400D01*
X162255200Y-95656400D02*
X162255200Y-94386400D01*
X162255200Y-94386400D02*
X159715200Y-94386400D01*
X159715200Y-94386400D02*
X159715200Y-95656400D01*
D12*
X89105000Y-89330000D02*
X92505000Y-89330000D01*
X89107944Y-89327056D02*
G75*
G02X90805000Y-85230000I1697056J1697056D01*
G01*
X92502056Y-89327056D02*
G75*
G03X90805000Y-85230000I-1697056J1697056D01*
G01*
X99265000Y-89330000D02*
X102665000Y-89330000D01*
X99267944Y-89327056D02*
G75*
G02X100965000Y-85230000I1697056J1697056D01*
G01*
X102662056Y-89327056D02*
G75*
G03X100965000Y-85230000I-1697056J1697056D01*
G01*
X109425000Y-89330000D02*
X112825000Y-89330000D01*
X109427944Y-89327056D02*
G75*
G02X111125000Y-85230000I1697056J1697056D01*
G01*
X112822056Y-89327056D02*
G75*
G03X111125000Y-85230000I-1697056J1697056D01*
G01*
X119585000Y-89330000D02*
X122985000Y-89330000D01*
X119587944Y-89327056D02*
G75*
G02X121285000Y-85230000I1697056J1697056D01*
G01*
X122982056Y-89327056D02*
G75*
G03X121285000Y-85230000I-1697056J1697056D01*
G01*
X112775000Y-79297000D02*
X113275000Y-79297000D01*
X112775000Y-79297000D02*
X112875000Y-78797000D01*
X113275000Y-79297000D02*
X113375000Y-78797000D01*
X112875000Y-78797000D02*
X113375000Y-78797000D01*
X108425000Y-79297000D02*
X110125000Y-69597000D01*
X113875000Y-69597000D02*
X112175000Y-79297000D01*
X112175000Y-79297000D02*
X108425000Y-79297000D01*
X110125000Y-69597000D02*
X113875000Y-69597000D01*
X109347000Y-74549000D02*
X112903000Y-74549000D01*
X106125000Y-80947000D02*
X116125000Y-80947000D01*
X116125000Y-80947000D02*
X116125000Y-67947000D01*
X116125000Y-67947000D02*
X106125000Y-67947000D01*
X106125000Y-67947000D02*
X106125000Y-80947000D01*
X133095000Y-79297000D02*
X133595000Y-79297000D01*
X133095000Y-79297000D02*
X133195000Y-78797000D01*
X133595000Y-79297000D02*
X133695000Y-78797000D01*
X133195000Y-78797000D02*
X133695000Y-78797000D01*
X128745000Y-79297000D02*
X130445000Y-69597000D01*
X134195000Y-69597000D02*
X132495000Y-79297000D01*
X132495000Y-79297000D02*
X128745000Y-79297000D01*
X130445000Y-69597000D02*
X134195000Y-69597000D01*
X129667000Y-74549000D02*
X133223000Y-74549000D01*
X126445000Y-80947000D02*
X136445000Y-80947000D01*
X136445000Y-80947000D02*
X136445000Y-67947000D01*
X136445000Y-67947000D02*
X126445000Y-67947000D01*
X126445000Y-67947000D02*
X126445000Y-80947000D01*
X122935000Y-79297000D02*
X123435000Y-79297000D01*
X122935000Y-79297000D02*
X123035000Y-78797000D01*
X123435000Y-79297000D02*
X123535000Y-78797000D01*
X123035000Y-78797000D02*
X123535000Y-78797000D01*
X118585000Y-79297000D02*
X120285000Y-69597000D01*
X124035000Y-69597000D02*
X122335000Y-79297000D01*
X122335000Y-79297000D02*
X118585000Y-79297000D01*
X120285000Y-69597000D02*
X124035000Y-69597000D01*
X119507000Y-74549000D02*
X123063000Y-74549000D01*
X116285000Y-80947000D02*
X126285000Y-80947000D01*
X126285000Y-80947000D02*
X126285000Y-67947000D01*
X126285000Y-67947000D02*
X116285000Y-67947000D01*
X116285000Y-67947000D02*
X116285000Y-80947000D01*
X102615000Y-79297000D02*
X103115000Y-79297000D01*
X102615000Y-79297000D02*
X102715000Y-78797000D01*
X103115000Y-79297000D02*
X103215000Y-78797000D01*
X102715000Y-78797000D02*
X103215000Y-78797000D01*
X98265000Y-79297000D02*
X99965000Y-69597000D01*
X103715000Y-69597000D02*
X102015000Y-79297000D01*
X102015000Y-79297000D02*
X98265000Y-79297000D01*
X99965000Y-69597000D02*
X103715000Y-69597000D01*
X99187000Y-74549000D02*
X102743000Y-74549000D01*
X95965000Y-80947000D02*
X105965000Y-80947000D01*
X105965000Y-80947000D02*
X105965000Y-67947000D01*
X105965000Y-67947000D02*
X95965000Y-67947000D01*
X95965000Y-67947000D02*
X95965000Y-80947000D01*
X92455000Y-79297000D02*
X92955000Y-79297000D01*
X92455000Y-79297000D02*
X92555000Y-78797000D01*
X92955000Y-79297000D02*
X93055000Y-78797000D01*
X92555000Y-78797000D02*
X93055000Y-78797000D01*
X88105000Y-79297000D02*
X89805000Y-69597000D01*
X93555000Y-69597000D02*
X91855000Y-79297000D01*
X91855000Y-79297000D02*
X88105000Y-79297000D01*
X89805000Y-69597000D02*
X93555000Y-69597000D01*
X89027000Y-74549000D02*
X92583000Y-74549000D01*
X85805000Y-80947000D02*
X95805000Y-80947000D01*
X95805000Y-80947000D02*
X95805000Y-67947000D01*
X95805000Y-67947000D02*
X85805000Y-67947000D01*
X85805000Y-67947000D02*
X85805000Y-80947000D01*
X151130000Y-98806000D02*
X148590000Y-98806000D01*
X153950000Y-99086000D02*
X152400000Y-99086000D01*
X151130000Y-98806000D02*
X151130000Y-96266000D01*
X152400000Y-95986000D02*
X153950000Y-95986000D01*
X153950000Y-95986000D02*
X153950000Y-99086000D01*
X151130000Y-96266000D02*
X148590000Y-96266000D01*
X148590000Y-96266000D02*
X148590000Y-98806000D01*
X109093000Y-56515000D02*
X110617000Y-56515000D01*
X110617000Y-56515000D02*
X110617000Y-61087000D01*
X110617000Y-61087000D02*
X109093000Y-61087000D01*
X109093000Y-61087000D02*
X109093000Y-56515000D01*
X106553000Y-56515000D02*
X108077000Y-56515000D01*
X108077000Y-56515000D02*
X108077000Y-61087000D01*
X108077000Y-61087000D02*
X106553000Y-61087000D01*
X106553000Y-61087000D02*
X106553000Y-56515000D01*
X104013000Y-56515000D02*
X105537000Y-56515000D01*
X105537000Y-56515000D02*
X105537000Y-61087000D01*
X105537000Y-61087000D02*
X104013000Y-61087000D01*
X104013000Y-61087000D02*
X104013000Y-56515000D01*
X101473000Y-56515000D02*
X102997000Y-56515000D01*
X102997000Y-56515000D02*
X102997000Y-61087000D01*
X102997000Y-61087000D02*
X101473000Y-61087000D01*
X101473000Y-61087000D02*
X101473000Y-56515000D01*
X98933000Y-56515000D02*
X100457000Y-56515000D01*
X100457000Y-56515000D02*
X100457000Y-61087000D01*
X100457000Y-61087000D02*
X98933000Y-61087000D01*
X98933000Y-61087000D02*
X98933000Y-56515000D01*
X96393000Y-56515000D02*
X97917000Y-56515000D01*
X97917000Y-56515000D02*
X97917000Y-61087000D01*
X97917000Y-61087000D02*
X96393000Y-61087000D01*
X96393000Y-61087000D02*
X96393000Y-56515000D01*
X93853000Y-61087000D02*
X95377000Y-61087000D01*
X95377000Y-61087000D02*
X95377000Y-56515000D01*
X95377000Y-56515000D02*
X93853000Y-56515000D01*
X93853000Y-56515000D02*
X93853000Y-61087000D01*
X91313000Y-56515000D02*
X92837000Y-56515000D01*
X92837000Y-56515000D02*
X92837000Y-61087000D01*
X92837000Y-61087000D02*
X91313000Y-61087000D01*
X91313000Y-61087000D02*
X91313000Y-56515000D01*
X88773000Y-61087000D02*
X88773000Y-56515000D01*
X88773000Y-56515000D02*
X90297000Y-56515000D01*
X90297000Y-56515000D02*
X90297000Y-61087000D01*
X90297000Y-61087000D02*
X88773000Y-61087000D01*
X86233000Y-61087000D02*
X86233000Y-56515000D01*
X86233000Y-56515000D02*
X87757000Y-56515000D01*
X87757000Y-56515000D02*
X87757000Y-61087000D01*
X87757000Y-61087000D02*
X86233000Y-61087000D01*
X109601000Y-61087000D02*
X110109000Y-61087000D01*
X110109000Y-56515000D02*
X109601000Y-56515000D01*
X107061000Y-61087000D02*
X107569000Y-61087000D01*
X107569000Y-56515000D02*
X107061000Y-56515000D01*
X104521000Y-61087000D02*
X105029000Y-61087000D01*
X105029000Y-56515000D02*
X104521000Y-56515000D01*
X101981000Y-61087000D02*
X102489000Y-61087000D01*
X102489000Y-56515000D02*
X101981000Y-56515000D01*
X99441000Y-61087000D02*
X99949000Y-61087000D01*
X99949000Y-56515000D02*
X99441000Y-56515000D01*
X96901000Y-61087000D02*
X97409000Y-61087000D01*
X97409000Y-56515000D02*
X96901000Y-56515000D01*
X94869000Y-56515000D02*
X94361000Y-56515000D01*
X94361000Y-61087000D02*
X94869000Y-61087000D01*
X91821000Y-61087000D02*
X92329000Y-61087000D01*
X92329000Y-56515000D02*
X91821000Y-56515000D01*
X89281000Y-61087000D02*
X89789000Y-61087000D01*
X89789000Y-56515000D02*
X89281000Y-56515000D01*
X86741000Y-56515000D02*
X87249000Y-56515000D01*
X87249000Y-61087000D02*
X86741000Y-61087000D01*
X111125000Y-53975000D02*
X111125000Y-64135000D01*
X111125000Y-64135000D02*
X85725000Y-64135000D01*
X85725000Y-64135000D02*
X85725000Y-53975000D01*
X85725000Y-53975000D02*
X111125000Y-53975000D01*
X134493000Y-56515000D02*
X136017000Y-56515000D01*
X136017000Y-56515000D02*
X136017000Y-61087000D01*
X136017000Y-61087000D02*
X134493000Y-61087000D01*
X134493000Y-61087000D02*
X134493000Y-56515000D01*
X131953000Y-56515000D02*
X133477000Y-56515000D01*
X133477000Y-56515000D02*
X133477000Y-61087000D01*
X133477000Y-61087000D02*
X131953000Y-61087000D01*
X131953000Y-61087000D02*
X131953000Y-56515000D01*
X129413000Y-56515000D02*
X130937000Y-56515000D01*
X130937000Y-56515000D02*
X130937000Y-61087000D01*
X130937000Y-61087000D02*
X129413000Y-61087000D01*
X129413000Y-61087000D02*
X129413000Y-56515000D01*
X126873000Y-56515000D02*
X128397000Y-56515000D01*
X128397000Y-56515000D02*
X128397000Y-61087000D01*
X128397000Y-61087000D02*
X126873000Y-61087000D01*
X126873000Y-61087000D02*
X126873000Y-56515000D01*
X124333000Y-56515000D02*
X125857000Y-56515000D01*
X125857000Y-56515000D02*
X125857000Y-61087000D01*
X125857000Y-61087000D02*
X124333000Y-61087000D01*
X124333000Y-61087000D02*
X124333000Y-56515000D01*
X121793000Y-56515000D02*
X123317000Y-56515000D01*
X123317000Y-56515000D02*
X123317000Y-61087000D01*
X123317000Y-61087000D02*
X121793000Y-61087000D01*
X121793000Y-61087000D02*
X121793000Y-56515000D01*
X119253000Y-61087000D02*
X120777000Y-61087000D01*
X120777000Y-61087000D02*
X120777000Y-56515000D01*
X120777000Y-56515000D02*
X119253000Y-56515000D01*
X119253000Y-56515000D02*
X119253000Y-61087000D01*
X116713000Y-56515000D02*
X118237000Y-56515000D01*
X118237000Y-56515000D02*
X118237000Y-61087000D01*
X118237000Y-61087000D02*
X116713000Y-61087000D01*
X116713000Y-61087000D02*
X116713000Y-56515000D01*
X114173000Y-61087000D02*
X114173000Y-56515000D01*
X114173000Y-56515000D02*
X115697000Y-56515000D01*
X115697000Y-56515000D02*
X115697000Y-61087000D01*
X115697000Y-61087000D02*
X114173000Y-61087000D01*
X111633000Y-61087000D02*
X111633000Y-56515000D01*
X111633000Y-56515000D02*
X113157000Y-56515000D01*
X113157000Y-56515000D02*
X113157000Y-61087000D01*
X113157000Y-61087000D02*
X111633000Y-61087000D01*
X135001000Y-61087000D02*
X135509000Y-61087000D01*
X135509000Y-56515000D02*
X135001000Y-56515000D01*
X132461000Y-61087000D02*
X132969000Y-61087000D01*
X132969000Y-56515000D02*
X132461000Y-56515000D01*
X129921000Y-61087000D02*
X130429000Y-61087000D01*
X130429000Y-56515000D02*
X129921000Y-56515000D01*
X127381000Y-61087000D02*
X127889000Y-61087000D01*
X127889000Y-56515000D02*
X127381000Y-56515000D01*
X124841000Y-61087000D02*
X125349000Y-61087000D01*
X125349000Y-56515000D02*
X124841000Y-56515000D01*
X122301000Y-61087000D02*
X122809000Y-61087000D01*
X122809000Y-56515000D02*
X122301000Y-56515000D01*
X120269000Y-56515000D02*
X119761000Y-56515000D01*
X119761000Y-61087000D02*
X120269000Y-61087000D01*
X117221000Y-61087000D02*
X117729000Y-61087000D01*
X117729000Y-56515000D02*
X117221000Y-56515000D01*
X114681000Y-61087000D02*
X115189000Y-61087000D01*
X115189000Y-56515000D02*
X114681000Y-56515000D01*
X112141000Y-56515000D02*
X112649000Y-56515000D01*
X112649000Y-61087000D02*
X112141000Y-61087000D01*
X136525000Y-53975000D02*
X136525000Y-64135000D01*
X136525000Y-64135000D02*
X111125000Y-64135000D01*
X111125000Y-64135000D02*
X111125000Y-53975000D01*
X111125000Y-53975000D02*
X136525000Y-53975000D01*
X142064000Y-56149000D02*
X145464000Y-56149000D01*
X142064000Y-56909000D02*
X145464000Y-56909000D01*
X138999000Y-52639000D02*
X148529000Y-52639000D01*
X148529000Y-52639000D02*
X148529000Y-62169000D01*
X148529000Y-62169000D02*
X138999000Y-62169000D01*
X138999000Y-62169000D02*
X138999000Y-52639000D01*
X145565735Y-56529000D02*
G75*
G03X145565735Y-56529000I-1801735J0D01*
G01*
X88265000Y-90805000D02*
X93345000Y-90805000D01*
X93345000Y-90805000D02*
X93345000Y-93345000D01*
X93345000Y-93345000D02*
X88265000Y-93345000D01*
X88265000Y-93345000D02*
X88265000Y-90805000D01*
X98425000Y-90805000D02*
X103505000Y-90805000D01*
X103505000Y-90805000D02*
X103505000Y-93345000D01*
X103505000Y-93345000D02*
X98425000Y-93345000D01*
X98425000Y-93345000D02*
X98425000Y-90805000D01*
X108585000Y-90805000D02*
X113665000Y-90805000D01*
X113665000Y-90805000D02*
X113665000Y-93345000D01*
X113665000Y-93345000D02*
X108585000Y-93345000D01*
X108585000Y-93345000D02*
X108585000Y-90805000D01*
X118745000Y-90805000D02*
X123825000Y-90805000D01*
X123825000Y-90805000D02*
X123825000Y-93345000D01*
X123825000Y-93345000D02*
X118745000Y-93345000D01*
X118745000Y-93345000D02*
X118745000Y-90805000D01*
X128905000Y-90805000D02*
X133985000Y-90805000D01*
X133985000Y-90805000D02*
X133985000Y-93345000D01*
X133985000Y-93345000D02*
X128905000Y-93345000D01*
X128905000Y-93345000D02*
X128905000Y-90805000D01*
X88265000Y-64770000D02*
X93345000Y-64770000D01*
X93345000Y-64770000D02*
X93345000Y-67310000D01*
X93345000Y-67310000D02*
X88265000Y-67310000D01*
X88265000Y-67310000D02*
X88265000Y-64770000D01*
X98425000Y-64770000D02*
X103505000Y-64770000D01*
X103505000Y-64770000D02*
X103505000Y-67310000D01*
X103505000Y-67310000D02*
X98425000Y-67310000D01*
X98425000Y-67310000D02*
X98425000Y-64770000D01*
X108585000Y-64770000D02*
X113665000Y-64770000D01*
X113665000Y-64770000D02*
X113665000Y-67310000D01*
X113665000Y-67310000D02*
X108585000Y-67310000D01*
X108585000Y-67310000D02*
X108585000Y-64770000D01*
X118745000Y-64770000D02*
X123825000Y-64770000D01*
X123825000Y-64770000D02*
X123825000Y-67310000D01*
X123825000Y-67310000D02*
X118745000Y-67310000D01*
X118745000Y-67310000D02*
X118745000Y-64770000D01*
X128905000Y-64770000D02*
X133985000Y-64770000D01*
X133985000Y-64770000D02*
X133985000Y-67310000D01*
X133985000Y-67310000D02*
X128905000Y-67310000D01*
X128905000Y-67310000D02*
X128905000Y-64770000D01*
X141478000Y-84150200D02*
X146558000Y-84150200D01*
X146558000Y-84150200D02*
X146558000Y-86690200D01*
X146558000Y-86690200D02*
X141478000Y-86690200D01*
X141478000Y-86690200D02*
X141478000Y-84150200D01*
X141478000Y-62814200D02*
X146558000Y-62814200D01*
X146558000Y-62814200D02*
X146558000Y-65354200D01*
X146558000Y-65354200D02*
X141478000Y-65354200D01*
X141478000Y-65354200D02*
X141478000Y-62814200D01*
X141478000Y-68910200D02*
X146558000Y-68910200D01*
X146558000Y-68910200D02*
X146558000Y-71450200D01*
X146558000Y-71450200D02*
X141478000Y-71450200D01*
X141478000Y-71450200D02*
X141478000Y-68910200D01*
X141478000Y-75006200D02*
X146558000Y-75006200D01*
X146558000Y-75006200D02*
X146558000Y-77546200D01*
X146558000Y-77546200D02*
X141478000Y-77546200D01*
X141478000Y-77546200D02*
X141478000Y-75006200D01*
X141478000Y-81102200D02*
X146558000Y-81102200D01*
X146558000Y-81102200D02*
X146558000Y-83642200D01*
X146558000Y-83642200D02*
X141478000Y-83642200D01*
X141478000Y-83642200D02*
X141478000Y-81102200D01*
X141478000Y-78054200D02*
X146558000Y-78054200D01*
X146558000Y-78054200D02*
X146558000Y-80594200D01*
X146558000Y-80594200D02*
X141478000Y-80594200D01*
X141478000Y-80594200D02*
X141478000Y-78054200D01*
X141478000Y-71958200D02*
X146558000Y-71958200D01*
X146558000Y-71958200D02*
X146558000Y-74498200D01*
X146558000Y-74498200D02*
X141478000Y-74498200D01*
X141478000Y-74498200D02*
X141478000Y-71958200D01*
X141478000Y-65862200D02*
X146558000Y-65862200D01*
X146558000Y-65862200D02*
X146558000Y-68402200D01*
X146558000Y-68402200D02*
X141478000Y-68402200D01*
X141478000Y-68402200D02*
X141478000Y-65862200D01*
X131222762Y-84875619D02*
X131127524Y-84828000D01*
X131032286Y-84732762D01*
X130889429Y-84589905D01*
X130794190Y-84542286D01*
X130698952Y-84542286D01*
X130746571Y-84780381D02*
X130651333Y-84732762D01*
X130556095Y-84637524D01*
X130508476Y-84447048D01*
X130508476Y-84113714D01*
X130556095Y-83923238D01*
X130651333Y-83828000D01*
X130746571Y-83780381D01*
X130937048Y-83780381D01*
X131032286Y-83828000D01*
X131127524Y-83923238D01*
X131175143Y-84113714D01*
X131175143Y-84447048D01*
X131127524Y-84637524D01*
X131032286Y-84732762D01*
X130937048Y-84780381D01*
X130746571Y-84780381D01*
X132079905Y-83780381D02*
X131603714Y-83780381D01*
X131556095Y-84256571D01*
X131603714Y-84208952D01*
X131698952Y-84161333D01*
X131937048Y-84161333D01*
X132032286Y-84208952D01*
X132079905Y-84256571D01*
X132127524Y-84351810D01*
X132127524Y-84589905D01*
X132079905Y-84685143D01*
X132032286Y-84732762D01*
X131937048Y-84780381D01*
X131698952Y-84780381D01*
X131603714Y-84732762D01*
X131556095Y-84685143D01*
X142152762Y-97988381D02*
X141819428Y-97512190D01*
X141581333Y-97988381D02*
X141581333Y-96988381D01*
X141962286Y-96988381D01*
X142057524Y-97036000D01*
X142105143Y-97083619D01*
X142152762Y-97178857D01*
X142152762Y-97321714D01*
X142105143Y-97416952D01*
X142057524Y-97464571D01*
X141962286Y-97512190D01*
X141581333Y-97512190D01*
X142438476Y-96988381D02*
X142771809Y-97988381D01*
X143105143Y-96988381D01*
X143962286Y-97988381D02*
X143390857Y-97988381D01*
X143676571Y-97988381D02*
X143676571Y-96988381D01*
X143581333Y-97131238D01*
X143486095Y-97226476D01*
X143390857Y-97274095D01*
D14*
X159935333Y-96308333D02*
X159935333Y-97747667D01*
X160020000Y-97917000D01*
X160104667Y-98001667D01*
X160274000Y-98086333D01*
X160612667Y-98086333D01*
X160782000Y-98001667D01*
X160866667Y-97917000D01*
X160951333Y-97747667D01*
X160951333Y-96308333D01*
X162729334Y-98086333D02*
X161713334Y-98086333D01*
X162221334Y-98086333D02*
X162221334Y-96308333D01*
X162052000Y-96562333D01*
X161882667Y-96731667D01*
X161713334Y-96816333D01*
D12*
X90582762Y-84875619D02*
X90487524Y-84828000D01*
X90392286Y-84732762D01*
X90249429Y-84589905D01*
X90154190Y-84542286D01*
X90058952Y-84542286D01*
X90106571Y-84780381D02*
X90011333Y-84732762D01*
X89916095Y-84637524D01*
X89868476Y-84447048D01*
X89868476Y-84113714D01*
X89916095Y-83923238D01*
X90011333Y-83828000D01*
X90106571Y-83780381D01*
X90297048Y-83780381D01*
X90392286Y-83828000D01*
X90487524Y-83923238D01*
X90535143Y-84113714D01*
X90535143Y-84447048D01*
X90487524Y-84637524D01*
X90392286Y-84732762D01*
X90297048Y-84780381D01*
X90106571Y-84780381D01*
X91487524Y-84780381D02*
X90916095Y-84780381D01*
X91201809Y-84780381D02*
X91201809Y-83780381D01*
X91106571Y-83923238D01*
X91011333Y-84018476D01*
X90916095Y-84066095D01*
X100742762Y-84875619D02*
X100647524Y-84828000D01*
X100552286Y-84732762D01*
X100409429Y-84589905D01*
X100314190Y-84542286D01*
X100218952Y-84542286D01*
X100266571Y-84780381D02*
X100171333Y-84732762D01*
X100076095Y-84637524D01*
X100028476Y-84447048D01*
X100028476Y-84113714D01*
X100076095Y-83923238D01*
X100171333Y-83828000D01*
X100266571Y-83780381D01*
X100457048Y-83780381D01*
X100552286Y-83828000D01*
X100647524Y-83923238D01*
X100695143Y-84113714D01*
X100695143Y-84447048D01*
X100647524Y-84637524D01*
X100552286Y-84732762D01*
X100457048Y-84780381D01*
X100266571Y-84780381D01*
X101076095Y-83875619D02*
X101123714Y-83828000D01*
X101218952Y-83780381D01*
X101457048Y-83780381D01*
X101552286Y-83828000D01*
X101599905Y-83875619D01*
X101647524Y-83970857D01*
X101647524Y-84066095D01*
X101599905Y-84208952D01*
X101028476Y-84780381D01*
X101647524Y-84780381D01*
X110902762Y-84875619D02*
X110807524Y-84828000D01*
X110712286Y-84732762D01*
X110569429Y-84589905D01*
X110474190Y-84542286D01*
X110378952Y-84542286D01*
X110426571Y-84780381D02*
X110331333Y-84732762D01*
X110236095Y-84637524D01*
X110188476Y-84447048D01*
X110188476Y-84113714D01*
X110236095Y-83923238D01*
X110331333Y-83828000D01*
X110426571Y-83780381D01*
X110617048Y-83780381D01*
X110712286Y-83828000D01*
X110807524Y-83923238D01*
X110855143Y-84113714D01*
X110855143Y-84447048D01*
X110807524Y-84637524D01*
X110712286Y-84732762D01*
X110617048Y-84780381D01*
X110426571Y-84780381D01*
X111188476Y-83780381D02*
X111807524Y-83780381D01*
X111474190Y-84161333D01*
X111617048Y-84161333D01*
X111712286Y-84208952D01*
X111759905Y-84256571D01*
X111807524Y-84351810D01*
X111807524Y-84589905D01*
X111759905Y-84685143D01*
X111712286Y-84732762D01*
X111617048Y-84780381D01*
X111331333Y-84780381D01*
X111236095Y-84732762D01*
X111188476Y-84685143D01*
X121062762Y-84875619D02*
X120967524Y-84828000D01*
X120872286Y-84732762D01*
X120729429Y-84589905D01*
X120634190Y-84542286D01*
X120538952Y-84542286D01*
X120586571Y-84780381D02*
X120491333Y-84732762D01*
X120396095Y-84637524D01*
X120348476Y-84447048D01*
X120348476Y-84113714D01*
X120396095Y-83923238D01*
X120491333Y-83828000D01*
X120586571Y-83780381D01*
X120777048Y-83780381D01*
X120872286Y-83828000D01*
X120967524Y-83923238D01*
X121015143Y-84113714D01*
X121015143Y-84447048D01*
X120967524Y-84637524D01*
X120872286Y-84732762D01*
X120777048Y-84780381D01*
X120586571Y-84780381D01*
X121872286Y-84113714D02*
X121872286Y-84780381D01*
X121634190Y-83732762D02*
X121396095Y-84447048D01*
X122015143Y-84447048D01*
X109680571Y-81954667D02*
X110156762Y-81954667D01*
X109585333Y-82240381D02*
X109918666Y-81240381D01*
X110252000Y-82240381D01*
X110918667Y-81716571D02*
X110585333Y-81716571D01*
X110585333Y-82240381D02*
X110585333Y-81240381D01*
X111061524Y-81240381D01*
X111775810Y-81716571D02*
X111442476Y-81716571D01*
X111442476Y-82240381D02*
X111442476Y-81240381D01*
X111918667Y-81240381D01*
X112204381Y-81240381D02*
X112823429Y-81240381D01*
X112490095Y-81621333D01*
X112632953Y-81621333D01*
X112728191Y-81668952D01*
X112775810Y-81716571D01*
X112823429Y-81811810D01*
X112823429Y-82049905D01*
X112775810Y-82145143D01*
X112728191Y-82192762D01*
X112632953Y-82240381D01*
X112347238Y-82240381D01*
X112252000Y-82192762D01*
X112204381Y-82145143D01*
X130000571Y-81954667D02*
X130476762Y-81954667D01*
X129905333Y-82240381D02*
X130238666Y-81240381D01*
X130572000Y-82240381D01*
X131238667Y-81716571D02*
X130905333Y-81716571D01*
X130905333Y-82240381D02*
X130905333Y-81240381D01*
X131381524Y-81240381D01*
X132095810Y-81716571D02*
X131762476Y-81716571D01*
X131762476Y-82240381D02*
X131762476Y-81240381D01*
X132238667Y-81240381D01*
X133095810Y-81240381D02*
X132619619Y-81240381D01*
X132572000Y-81716571D01*
X132619619Y-81668952D01*
X132714857Y-81621333D01*
X132952953Y-81621333D01*
X133048191Y-81668952D01*
X133095810Y-81716571D01*
X133143429Y-81811810D01*
X133143429Y-82049905D01*
X133095810Y-82145143D01*
X133048191Y-82192762D01*
X132952953Y-82240381D01*
X132714857Y-82240381D01*
X132619619Y-82192762D01*
X132572000Y-82145143D01*
X119840571Y-81954667D02*
X120316762Y-81954667D01*
X119745333Y-82240381D02*
X120078666Y-81240381D01*
X120412000Y-82240381D01*
X121078667Y-81716571D02*
X120745333Y-81716571D01*
X120745333Y-82240381D02*
X120745333Y-81240381D01*
X121221524Y-81240381D01*
X121935810Y-81716571D02*
X121602476Y-81716571D01*
X121602476Y-82240381D02*
X121602476Y-81240381D01*
X122078667Y-81240381D01*
X122888191Y-81573714D02*
X122888191Y-82240381D01*
X122650095Y-81192762D02*
X122412000Y-81907048D01*
X123031048Y-81907048D01*
X99520571Y-81954667D02*
X99996762Y-81954667D01*
X99425333Y-82240381D02*
X99758666Y-81240381D01*
X100092000Y-82240381D01*
X100758667Y-81716571D02*
X100425333Y-81716571D01*
X100425333Y-82240381D02*
X100425333Y-81240381D01*
X100901524Y-81240381D01*
X101615810Y-81716571D02*
X101282476Y-81716571D01*
X101282476Y-82240381D02*
X101282476Y-81240381D01*
X101758667Y-81240381D01*
X102092000Y-81335619D02*
X102139619Y-81288000D01*
X102234857Y-81240381D01*
X102472953Y-81240381D01*
X102568191Y-81288000D01*
X102615810Y-81335619D01*
X102663429Y-81430857D01*
X102663429Y-81526095D01*
X102615810Y-81668952D01*
X102044381Y-82240381D01*
X102663429Y-82240381D01*
X89360571Y-81954667D02*
X89836762Y-81954667D01*
X89265333Y-82240381D02*
X89598666Y-81240381D01*
X89932000Y-82240381D01*
X90598667Y-81716571D02*
X90265333Y-81716571D01*
X90265333Y-82240381D02*
X90265333Y-81240381D01*
X90741524Y-81240381D01*
X91455810Y-81716571D02*
X91122476Y-81716571D01*
X91122476Y-82240381D02*
X91122476Y-81240381D01*
X91598667Y-81240381D01*
X92503429Y-82240381D02*
X91932000Y-82240381D01*
X92217714Y-82240381D02*
X92217714Y-81240381D01*
X92122476Y-81383238D01*
X92027238Y-81478476D01*
X91932000Y-81526095D01*
X98488667Y-53014571D02*
X98631524Y-53062190D01*
X98679143Y-53109810D01*
X98726762Y-53205048D01*
X98726762Y-53347905D01*
X98679143Y-53443143D01*
X98631524Y-53490762D01*
X98536286Y-53538381D01*
X98155333Y-53538381D01*
X98155333Y-52538381D01*
X98488667Y-52538381D01*
X98583905Y-52586000D01*
X98631524Y-52633619D01*
X98679143Y-52728857D01*
X98679143Y-52824095D01*
X98631524Y-52919333D01*
X98583905Y-52966952D01*
X98488667Y-53014571D01*
X98155333Y-53014571D01*
X99107714Y-53252667D02*
X99583905Y-53252667D01*
X99012476Y-53538381D02*
X99345809Y-52538381D01*
X99679143Y-53538381D01*
X100583905Y-53538381D02*
X100250571Y-53062190D01*
X100012476Y-53538381D02*
X100012476Y-52538381D01*
X100393429Y-52538381D01*
X100488667Y-52586000D01*
X100536286Y-52633619D01*
X100583905Y-52728857D01*
X100583905Y-52871714D01*
X100536286Y-52966952D01*
X100488667Y-53014571D01*
X100393429Y-53062190D01*
X100012476Y-53062190D01*
X101536286Y-53538381D02*
X100964857Y-53538381D01*
X101250571Y-53538381D02*
X101250571Y-52538381D01*
X101155333Y-52681238D01*
X101060095Y-52776476D01*
X100964857Y-52824095D01*
X123634667Y-53014571D02*
X123777524Y-53062190D01*
X123825143Y-53109810D01*
X123872762Y-53205048D01*
X123872762Y-53347905D01*
X123825143Y-53443143D01*
X123777524Y-53490762D01*
X123682286Y-53538381D01*
X123301333Y-53538381D01*
X123301333Y-52538381D01*
X123634667Y-52538381D01*
X123729905Y-52586000D01*
X123777524Y-52633619D01*
X123825143Y-52728857D01*
X123825143Y-52824095D01*
X123777524Y-52919333D01*
X123729905Y-52966952D01*
X123634667Y-53014571D01*
X123301333Y-53014571D01*
X124253714Y-53252667D02*
X124729905Y-53252667D01*
X124158476Y-53538381D02*
X124491809Y-52538381D01*
X124825143Y-53538381D01*
X125729905Y-53538381D02*
X125396571Y-53062190D01*
X125158476Y-53538381D02*
X125158476Y-52538381D01*
X125539429Y-52538381D01*
X125634667Y-52586000D01*
X125682286Y-52633619D01*
X125729905Y-52728857D01*
X125729905Y-52871714D01*
X125682286Y-52966952D01*
X125634667Y-53014571D01*
X125539429Y-53062190D01*
X125158476Y-53062190D01*
X126110857Y-52633619D02*
X126158476Y-52586000D01*
X126253714Y-52538381D01*
X126491810Y-52538381D01*
X126587048Y-52586000D01*
X126634667Y-52633619D01*
X126682286Y-52728857D01*
X126682286Y-52824095D01*
X126634667Y-52966952D01*
X126063238Y-53538381D01*
X126682286Y-53538381D01*
X143168762Y-52014381D02*
X142835428Y-51538190D01*
X142597333Y-52014381D02*
X142597333Y-51014381D01*
X142978286Y-51014381D01*
X143073524Y-51062000D01*
X143121143Y-51109619D01*
X143168762Y-51204857D01*
X143168762Y-51347714D01*
X143121143Y-51442952D01*
X143073524Y-51490571D01*
X142978286Y-51538190D01*
X142597333Y-51538190D01*
X143454476Y-51014381D02*
X143787809Y-52014381D01*
X144121143Y-51014381D01*
X144406857Y-51109619D02*
X144454476Y-51062000D01*
X144549714Y-51014381D01*
X144787810Y-51014381D01*
X144883048Y-51062000D01*
X144930667Y-51109619D01*
X144978286Y-51204857D01*
X144978286Y-51300095D01*
X144930667Y-51442952D01*
X144359238Y-52014381D01*
X144978286Y-52014381D01*
X90638334Y-92527381D02*
X90305000Y-92051190D01*
X90066905Y-92527381D02*
X90066905Y-91527381D01*
X90447858Y-91527381D01*
X90543096Y-91575000D01*
X90590715Y-91622619D01*
X90638334Y-91717857D01*
X90638334Y-91860714D01*
X90590715Y-91955952D01*
X90543096Y-92003571D01*
X90447858Y-92051190D01*
X90066905Y-92051190D01*
X91590715Y-92527381D02*
X91019286Y-92527381D01*
X91305000Y-92527381D02*
X91305000Y-91527381D01*
X91209762Y-91670238D01*
X91114524Y-91765476D01*
X91019286Y-91813095D01*
X100798334Y-92527381D02*
X100465000Y-92051190D01*
X100226905Y-92527381D02*
X100226905Y-91527381D01*
X100607858Y-91527381D01*
X100703096Y-91575000D01*
X100750715Y-91622619D01*
X100798334Y-91717857D01*
X100798334Y-91860714D01*
X100750715Y-91955952D01*
X100703096Y-92003571D01*
X100607858Y-92051190D01*
X100226905Y-92051190D01*
X101179286Y-91622619D02*
X101226905Y-91575000D01*
X101322143Y-91527381D01*
X101560239Y-91527381D01*
X101655477Y-91575000D01*
X101703096Y-91622619D01*
X101750715Y-91717857D01*
X101750715Y-91813095D01*
X101703096Y-91955952D01*
X101131667Y-92527381D01*
X101750715Y-92527381D01*
X110958334Y-92527381D02*
X110625000Y-92051190D01*
X110386905Y-92527381D02*
X110386905Y-91527381D01*
X110767858Y-91527381D01*
X110863096Y-91575000D01*
X110910715Y-91622619D01*
X110958334Y-91717857D01*
X110958334Y-91860714D01*
X110910715Y-91955952D01*
X110863096Y-92003571D01*
X110767858Y-92051190D01*
X110386905Y-92051190D01*
X111291667Y-91527381D02*
X111910715Y-91527381D01*
X111577381Y-91908333D01*
X111720239Y-91908333D01*
X111815477Y-91955952D01*
X111863096Y-92003571D01*
X111910715Y-92098810D01*
X111910715Y-92336905D01*
X111863096Y-92432143D01*
X111815477Y-92479762D01*
X111720239Y-92527381D01*
X111434524Y-92527381D01*
X111339286Y-92479762D01*
X111291667Y-92432143D01*
X121118334Y-92527381D02*
X120785000Y-92051190D01*
X120546905Y-92527381D02*
X120546905Y-91527381D01*
X120927858Y-91527381D01*
X121023096Y-91575000D01*
X121070715Y-91622619D01*
X121118334Y-91717857D01*
X121118334Y-91860714D01*
X121070715Y-91955952D01*
X121023096Y-92003571D01*
X120927858Y-92051190D01*
X120546905Y-92051190D01*
X121975477Y-91860714D02*
X121975477Y-92527381D01*
X121737381Y-91479762D02*
X121499286Y-92194048D01*
X122118334Y-92194048D01*
X131278334Y-92527381D02*
X130945000Y-92051190D01*
X130706905Y-92527381D02*
X130706905Y-91527381D01*
X131087858Y-91527381D01*
X131183096Y-91575000D01*
X131230715Y-91622619D01*
X131278334Y-91717857D01*
X131278334Y-91860714D01*
X131230715Y-91955952D01*
X131183096Y-92003571D01*
X131087858Y-92051190D01*
X130706905Y-92051190D01*
X132183096Y-91527381D02*
X131706905Y-91527381D01*
X131659286Y-92003571D01*
X131706905Y-91955952D01*
X131802143Y-91908333D01*
X132040239Y-91908333D01*
X132135477Y-91955952D01*
X132183096Y-92003571D01*
X132230715Y-92098810D01*
X132230715Y-92336905D01*
X132183096Y-92432143D01*
X132135477Y-92479762D01*
X132040239Y-92527381D01*
X131802143Y-92527381D01*
X131706905Y-92479762D01*
X131659286Y-92432143D01*
X90638334Y-66492381D02*
X90305000Y-66016190D01*
X90066905Y-66492381D02*
X90066905Y-65492381D01*
X90447858Y-65492381D01*
X90543096Y-65540000D01*
X90590715Y-65587619D01*
X90638334Y-65682857D01*
X90638334Y-65825714D01*
X90590715Y-65920952D01*
X90543096Y-65968571D01*
X90447858Y-66016190D01*
X90066905Y-66016190D01*
X91495477Y-65492381D02*
X91305000Y-65492381D01*
X91209762Y-65540000D01*
X91162143Y-65587619D01*
X91066905Y-65730476D01*
X91019286Y-65920952D01*
X91019286Y-66301905D01*
X91066905Y-66397143D01*
X91114524Y-66444762D01*
X91209762Y-66492381D01*
X91400239Y-66492381D01*
X91495477Y-66444762D01*
X91543096Y-66397143D01*
X91590715Y-66301905D01*
X91590715Y-66063810D01*
X91543096Y-65968571D01*
X91495477Y-65920952D01*
X91400239Y-65873333D01*
X91209762Y-65873333D01*
X91114524Y-65920952D01*
X91066905Y-65968571D01*
X91019286Y-66063810D01*
X100798334Y-66492381D02*
X100465000Y-66016190D01*
X100226905Y-66492381D02*
X100226905Y-65492381D01*
X100607858Y-65492381D01*
X100703096Y-65540000D01*
X100750715Y-65587619D01*
X100798334Y-65682857D01*
X100798334Y-65825714D01*
X100750715Y-65920952D01*
X100703096Y-65968571D01*
X100607858Y-66016190D01*
X100226905Y-66016190D01*
X101131667Y-65492381D02*
X101798334Y-65492381D01*
X101369762Y-66492381D01*
X110958334Y-66492381D02*
X110625000Y-66016190D01*
X110386905Y-66492381D02*
X110386905Y-65492381D01*
X110767858Y-65492381D01*
X110863096Y-65540000D01*
X110910715Y-65587619D01*
X110958334Y-65682857D01*
X110958334Y-65825714D01*
X110910715Y-65920952D01*
X110863096Y-65968571D01*
X110767858Y-66016190D01*
X110386905Y-66016190D01*
X111529762Y-65920952D02*
X111434524Y-65873333D01*
X111386905Y-65825714D01*
X111339286Y-65730476D01*
X111339286Y-65682857D01*
X111386905Y-65587619D01*
X111434524Y-65540000D01*
X111529762Y-65492381D01*
X111720239Y-65492381D01*
X111815477Y-65540000D01*
X111863096Y-65587619D01*
X111910715Y-65682857D01*
X111910715Y-65730476D01*
X111863096Y-65825714D01*
X111815477Y-65873333D01*
X111720239Y-65920952D01*
X111529762Y-65920952D01*
X111434524Y-65968571D01*
X111386905Y-66016190D01*
X111339286Y-66111429D01*
X111339286Y-66301905D01*
X111386905Y-66397143D01*
X111434524Y-66444762D01*
X111529762Y-66492381D01*
X111720239Y-66492381D01*
X111815477Y-66444762D01*
X111863096Y-66397143D01*
X111910715Y-66301905D01*
X111910715Y-66111429D01*
X111863096Y-66016190D01*
X111815477Y-65968571D01*
X111720239Y-65920952D01*
X121118334Y-66492381D02*
X120785000Y-66016190D01*
X120546905Y-66492381D02*
X120546905Y-65492381D01*
X120927858Y-65492381D01*
X121023096Y-65540000D01*
X121070715Y-65587619D01*
X121118334Y-65682857D01*
X121118334Y-65825714D01*
X121070715Y-65920952D01*
X121023096Y-65968571D01*
X120927858Y-66016190D01*
X120546905Y-66016190D01*
X121594524Y-66492381D02*
X121785000Y-66492381D01*
X121880239Y-66444762D01*
X121927858Y-66397143D01*
X122023096Y-66254286D01*
X122070715Y-66063810D01*
X122070715Y-65682857D01*
X122023096Y-65587619D01*
X121975477Y-65540000D01*
X121880239Y-65492381D01*
X121689762Y-65492381D01*
X121594524Y-65540000D01*
X121546905Y-65587619D01*
X121499286Y-65682857D01*
X121499286Y-65920952D01*
X121546905Y-66016190D01*
X121594524Y-66063810D01*
X121689762Y-66111429D01*
X121880239Y-66111429D01*
X121975477Y-66063810D01*
X122023096Y-66016190D01*
X122070715Y-65920952D01*
X130802143Y-66492381D02*
X130468809Y-66016190D01*
X130230714Y-66492381D02*
X130230714Y-65492381D01*
X130611667Y-65492381D01*
X130706905Y-65540000D01*
X130754524Y-65587619D01*
X130802143Y-65682857D01*
X130802143Y-65825714D01*
X130754524Y-65920952D01*
X130706905Y-65968571D01*
X130611667Y-66016190D01*
X130230714Y-66016190D01*
X131754524Y-66492381D02*
X131183095Y-66492381D01*
X131468809Y-66492381D02*
X131468809Y-65492381D01*
X131373571Y-65635238D01*
X131278333Y-65730476D01*
X131183095Y-65778095D01*
X132373571Y-65492381D02*
X132468810Y-65492381D01*
X132564048Y-65540000D01*
X132611667Y-65587619D01*
X132659286Y-65682857D01*
X132706905Y-65873333D01*
X132706905Y-66111429D01*
X132659286Y-66301905D01*
X132611667Y-66397143D01*
X132564048Y-66444762D01*
X132468810Y-66492381D01*
X132373571Y-66492381D01*
X132278333Y-66444762D01*
X132230714Y-66397143D01*
X132183095Y-66301905D01*
X132135476Y-66111429D01*
X132135476Y-65873333D01*
X132183095Y-65682857D01*
X132230714Y-65587619D01*
X132278333Y-65540000D01*
X132373571Y-65492381D01*
X143375143Y-85872581D02*
X143041809Y-85396390D01*
X142803714Y-85872581D02*
X142803714Y-84872581D01*
X143184667Y-84872581D01*
X143279905Y-84920200D01*
X143327524Y-84967819D01*
X143375143Y-85063057D01*
X143375143Y-85205914D01*
X143327524Y-85301152D01*
X143279905Y-85348771D01*
X143184667Y-85396390D01*
X142803714Y-85396390D01*
X144327524Y-85872581D02*
X143756095Y-85872581D01*
X144041809Y-85872581D02*
X144041809Y-84872581D01*
X143946571Y-85015438D01*
X143851333Y-85110676D01*
X143756095Y-85158295D01*
X145279905Y-85872581D02*
X144708476Y-85872581D01*
X144994190Y-85872581D02*
X144994190Y-84872581D01*
X144898952Y-85015438D01*
X144803714Y-85110676D01*
X144708476Y-85158295D01*
X143375143Y-64536581D02*
X143041809Y-64060390D01*
X142803714Y-64536581D02*
X142803714Y-63536581D01*
X143184667Y-63536581D01*
X143279905Y-63584200D01*
X143327524Y-63631819D01*
X143375143Y-63727057D01*
X143375143Y-63869914D01*
X143327524Y-63965152D01*
X143279905Y-64012771D01*
X143184667Y-64060390D01*
X142803714Y-64060390D01*
X144327524Y-64536581D02*
X143756095Y-64536581D01*
X144041809Y-64536581D02*
X144041809Y-63536581D01*
X143946571Y-63679438D01*
X143851333Y-63774676D01*
X143756095Y-63822295D01*
X144708476Y-63631819D02*
X144756095Y-63584200D01*
X144851333Y-63536581D01*
X145089429Y-63536581D01*
X145184667Y-63584200D01*
X145232286Y-63631819D01*
X145279905Y-63727057D01*
X145279905Y-63822295D01*
X145232286Y-63965152D01*
X144660857Y-64536581D01*
X145279905Y-64536581D01*
X143375143Y-70632581D02*
X143041809Y-70156390D01*
X142803714Y-70632581D02*
X142803714Y-69632581D01*
X143184667Y-69632581D01*
X143279905Y-69680200D01*
X143327524Y-69727819D01*
X143375143Y-69823057D01*
X143375143Y-69965914D01*
X143327524Y-70061152D01*
X143279905Y-70108771D01*
X143184667Y-70156390D01*
X142803714Y-70156390D01*
X144327524Y-70632581D02*
X143756095Y-70632581D01*
X144041809Y-70632581D02*
X144041809Y-69632581D01*
X143946571Y-69775438D01*
X143851333Y-69870676D01*
X143756095Y-69918295D01*
X144660857Y-69632581D02*
X145279905Y-69632581D01*
X144946571Y-70013533D01*
X145089429Y-70013533D01*
X145184667Y-70061152D01*
X145232286Y-70108771D01*
X145279905Y-70204010D01*
X145279905Y-70442105D01*
X145232286Y-70537343D01*
X145184667Y-70584962D01*
X145089429Y-70632581D01*
X144803714Y-70632581D01*
X144708476Y-70584962D01*
X144660857Y-70537343D01*
X143375143Y-76728581D02*
X143041809Y-76252390D01*
X142803714Y-76728581D02*
X142803714Y-75728581D01*
X143184667Y-75728581D01*
X143279905Y-75776200D01*
X143327524Y-75823819D01*
X143375143Y-75919057D01*
X143375143Y-76061914D01*
X143327524Y-76157152D01*
X143279905Y-76204771D01*
X143184667Y-76252390D01*
X142803714Y-76252390D01*
X144327524Y-76728581D02*
X143756095Y-76728581D01*
X144041809Y-76728581D02*
X144041809Y-75728581D01*
X143946571Y-75871438D01*
X143851333Y-75966676D01*
X143756095Y-76014295D01*
X145184667Y-76061914D02*
X145184667Y-76728581D01*
X144946571Y-75680962D02*
X144708476Y-76395248D01*
X145327524Y-76395248D01*
X143375143Y-82824581D02*
X143041809Y-82348390D01*
X142803714Y-82824581D02*
X142803714Y-81824581D01*
X143184667Y-81824581D01*
X143279905Y-81872200D01*
X143327524Y-81919819D01*
X143375143Y-82015057D01*
X143375143Y-82157914D01*
X143327524Y-82253152D01*
X143279905Y-82300771D01*
X143184667Y-82348390D01*
X142803714Y-82348390D01*
X144327524Y-82824581D02*
X143756095Y-82824581D01*
X144041809Y-82824581D02*
X144041809Y-81824581D01*
X143946571Y-81967438D01*
X143851333Y-82062676D01*
X143756095Y-82110295D01*
X145232286Y-81824581D02*
X144756095Y-81824581D01*
X144708476Y-82300771D01*
X144756095Y-82253152D01*
X144851333Y-82205533D01*
X145089429Y-82205533D01*
X145184667Y-82253152D01*
X145232286Y-82300771D01*
X145279905Y-82396010D01*
X145279905Y-82634105D01*
X145232286Y-82729343D01*
X145184667Y-82776962D01*
X145089429Y-82824581D01*
X144851333Y-82824581D01*
X144756095Y-82776962D01*
X144708476Y-82729343D01*
X143375143Y-79776581D02*
X143041809Y-79300390D01*
X142803714Y-79776581D02*
X142803714Y-78776581D01*
X143184667Y-78776581D01*
X143279905Y-78824200D01*
X143327524Y-78871819D01*
X143375143Y-78967057D01*
X143375143Y-79109914D01*
X143327524Y-79205152D01*
X143279905Y-79252771D01*
X143184667Y-79300390D01*
X142803714Y-79300390D01*
X144327524Y-79776581D02*
X143756095Y-79776581D01*
X144041809Y-79776581D02*
X144041809Y-78776581D01*
X143946571Y-78919438D01*
X143851333Y-79014676D01*
X143756095Y-79062295D01*
X145184667Y-78776581D02*
X144994190Y-78776581D01*
X144898952Y-78824200D01*
X144851333Y-78871819D01*
X144756095Y-79014676D01*
X144708476Y-79205152D01*
X144708476Y-79586105D01*
X144756095Y-79681343D01*
X144803714Y-79728962D01*
X144898952Y-79776581D01*
X145089429Y-79776581D01*
X145184667Y-79728962D01*
X145232286Y-79681343D01*
X145279905Y-79586105D01*
X145279905Y-79348010D01*
X145232286Y-79252771D01*
X145184667Y-79205152D01*
X145089429Y-79157533D01*
X144898952Y-79157533D01*
X144803714Y-79205152D01*
X144756095Y-79252771D01*
X144708476Y-79348010D01*
X143375143Y-73680581D02*
X143041809Y-73204390D01*
X142803714Y-73680581D02*
X142803714Y-72680581D01*
X143184667Y-72680581D01*
X143279905Y-72728200D01*
X143327524Y-72775819D01*
X143375143Y-72871057D01*
X143375143Y-73013914D01*
X143327524Y-73109152D01*
X143279905Y-73156771D01*
X143184667Y-73204390D01*
X142803714Y-73204390D01*
X144327524Y-73680581D02*
X143756095Y-73680581D01*
X144041809Y-73680581D02*
X144041809Y-72680581D01*
X143946571Y-72823438D01*
X143851333Y-72918676D01*
X143756095Y-72966295D01*
X144660857Y-72680581D02*
X145327524Y-72680581D01*
X144898952Y-73680581D01*
X143375143Y-67584581D02*
X143041809Y-67108390D01*
X142803714Y-67584581D02*
X142803714Y-66584581D01*
X143184667Y-66584581D01*
X143279905Y-66632200D01*
X143327524Y-66679819D01*
X143375143Y-66775057D01*
X143375143Y-66917914D01*
X143327524Y-67013152D01*
X143279905Y-67060771D01*
X143184667Y-67108390D01*
X142803714Y-67108390D01*
X144327524Y-67584581D02*
X143756095Y-67584581D01*
X144041809Y-67584581D02*
X144041809Y-66584581D01*
X143946571Y-66727438D01*
X143851333Y-66822676D01*
X143756095Y-66870295D01*
X144898952Y-67013152D02*
X144803714Y-66965533D01*
X144756095Y-66917914D01*
X144708476Y-66822676D01*
X144708476Y-66775057D01*
X144756095Y-66679819D01*
X144803714Y-66632200D01*
X144898952Y-66584581D01*
X145089429Y-66584581D01*
X145184667Y-66632200D01*
X145232286Y-66679819D01*
X145279905Y-66775057D01*
X145279905Y-66822676D01*
X145232286Y-66917914D01*
X145184667Y-66965533D01*
X145089429Y-67013152D01*
X144898952Y-67013152D01*
X144803714Y-67060771D01*
X144756095Y-67108390D01*
X144708476Y-67203629D01*
X144708476Y-67394105D01*
X144756095Y-67489343D01*
X144803714Y-67536962D01*
X144898952Y-67584581D01*
X145089429Y-67584581D01*
X145184667Y-67536962D01*
X145232286Y-67489343D01*
X145279905Y-67394105D01*
X145279905Y-67203629D01*
X145232286Y-67108390D01*
X145184667Y-67060771D01*
X145089429Y-67013152D01*
M02*
