M48
;DRILL file {KiCad 4.0.4+e1-6308~48~ubuntu15.10.1-stable} date Thu Dec  8 14:08:47 2016
;FORMAT={-:-/ absolute / inch / decimal}
FMAT,2
INCH,TZ
T1C0.025
T2C0.030
T3C0.036
T4C0.040
T5C0.087
%
G90
G05
M72
T1
X3.525Y-3.45
X3.575Y-3.45
X3.625Y-3.45
X3.925Y-3.45
X3.975Y-3.45
X4.025Y-3.45
X4.325Y-3.45
X4.375Y-3.45
X4.425Y-3.45
X4.725Y-3.45
X4.775Y-3.45
X4.825Y-3.45
X5.125Y-3.45
X5.175Y-3.45
X5.225Y-3.45
X5.52Y-3.62
X5.56Y-2.26
X5.62Y-3.72
X5.66Y-2.36
X5.72Y-3.62
X5.76Y-2.26
T2
X3.425Y-2.7345
X3.425Y-2.8345
X3.425Y-2.9345
X3.425Y-3.0345
X3.425Y-3.1345
X3.725Y-2.7345
X3.725Y-2.8345
X3.725Y-2.9345
X3.725Y-3.0345
X3.725Y-3.1345
X3.825Y-2.7345
X3.825Y-2.8345
X3.825Y-2.9345
X3.825Y-3.0345
X3.825Y-3.1345
X4.125Y-2.7345
X4.125Y-2.8345
X4.125Y-2.9345
X4.125Y-3.0345
X4.125Y-3.1345
X4.225Y-2.7345
X4.225Y-2.8345
X4.225Y-2.9345
X4.225Y-3.0345
X4.225Y-3.1345
X4.525Y-2.7345
X4.525Y-2.8345
X4.525Y-2.9345
X4.525Y-3.0345
X4.525Y-3.1345
X4.625Y-2.7345
X4.625Y-2.8345
X4.625Y-2.9345
X4.625Y-3.0345
X4.625Y-3.1345
X4.925Y-2.7345
X4.925Y-2.8345
X4.925Y-2.9345
X4.925Y-3.0345
X4.925Y-3.1345
X5.025Y-2.7345
X5.025Y-2.8345
X5.025Y-2.9345
X5.025Y-3.0345
X5.025Y-3.1345
X5.325Y-2.7345
X5.325Y-2.8345
X5.325Y-2.9345
X5.325Y-3.0345
X5.325Y-3.1345
T3
X3.425Y-2.175
X3.425Y-2.475
X3.525Y-2.175
X3.525Y-2.475
X3.625Y-2.175
X3.625Y-2.475
X3.725Y-2.175
X3.725Y-2.475
X3.825Y-2.175
X3.825Y-2.475
X3.925Y-2.175
X3.925Y-2.475
X4.025Y-2.175
X4.025Y-2.475
X4.125Y-2.175
X4.125Y-2.475
X4.225Y-2.175
X4.225Y-2.475
X4.325Y-2.175
X4.325Y-2.475
X4.425Y-2.175
X4.425Y-2.475
X4.525Y-2.175
X4.525Y-2.475
X4.625Y-2.175
X4.625Y-2.475
X4.725Y-2.175
X4.725Y-2.475
X4.825Y-2.175
X4.825Y-2.475
X4.925Y-2.175
X4.925Y-2.475
X5.025Y-2.175
X5.025Y-2.475
X5.125Y-2.175
X5.125Y-2.475
X5.225Y-2.175
X5.225Y-2.475
X5.325Y-2.175
X5.325Y-2.475
T4
X3.425Y-2.6
X3.425Y-3.625
X3.725Y-2.6
X3.725Y-3.625
X3.825Y-2.6
X3.825Y-3.625
X4.125Y-2.6
X4.125Y-3.625
X4.225Y-2.6
X4.225Y-3.625
X4.525Y-2.6
X4.525Y-3.625
X4.625Y-2.6
X4.625Y-3.625
X4.925Y-2.6
X4.925Y-3.625
X5.025Y-2.6
X5.025Y-3.625
X5.325Y-2.6
X5.325Y-3.625
X5.52Y-2.523
X5.52Y-2.643
X5.52Y-2.763
X5.52Y-2.883
X5.52Y-3.003
X5.52Y-3.123
X5.52Y-3.243
X5.52Y-3.363
X5.82Y-2.523
X5.82Y-2.643
X5.82Y-2.763
X5.82Y-2.883
X5.82Y-3.003
X5.82Y-3.123
X5.82Y-3.243
X5.82Y-3.363
X5.9Y-3.84
X6.Y-3.84
X6.038Y-2.216
X6.038Y-2.316
X6.038Y-2.416
X6.038Y-2.516
X6.038Y-2.616
X6.038Y-2.716
X6.038Y-2.816
X6.038Y-2.916
X6.038Y-3.016
X6.038Y-3.116
X6.038Y-3.216
X6.038Y-3.316
X6.038Y-3.416
X6.038Y-3.516
X6.038Y-3.616
X6.638Y-2.216
X6.638Y-2.316
X6.638Y-2.416
X6.638Y-2.516
X6.638Y-2.616
X6.638Y-2.716
X6.638Y-2.816
X6.638Y-2.916
X6.638Y-3.016
X6.638Y-3.116
X6.638Y-3.216
X6.638Y-3.316
X6.638Y-3.416
X6.638Y-3.516
X6.638Y-3.616
T5
X3.34Y-2.02
X3.34Y-3.84
X6.7Y-2.02
X6.7Y-3.84
T0
M30
