G04 #@! TF.FileFunction,Copper,L1,Top,Signal*
%FSLAX46Y46*%
G04 Gerber Fmt 4.6, Leading zero omitted, Abs format (unit mm)*
G04 Created by KiCad (PCBNEW 4.0.4+e1-6308~48~ubuntu15.10.1-stable) date Thu Dec  8 14:38:08 2016*
%MOMM*%
%LPD*%
G01*
G04 APERTURE LIST*
%ADD10C,0.100000*%
%ADD11O,0.899160X1.501140*%
%ADD12C,1.510000*%
%ADD13R,1.510000X1.510000*%
%ADD14R,2.286000X1.574800*%
%ADD15O,2.286000X1.574800*%
%ADD16C,1.524000*%
%ADD17R,2.032000X2.032000*%
%ADD18O,2.032000X2.032000*%
%ADD19C,2.032000*%
%ADD20C,1.727200*%
%ADD21C,0.152400*%
%ADD22C,0.254000*%
%ADD23C,0.762000*%
%ADD24C,1.270000*%
G04 APERTURE END LIST*
D10*
D11*
X131445000Y-87630000D03*
X132715000Y-87630000D03*
X130175000Y-87630000D03*
D12*
X145288000Y-91948000D03*
D13*
X140208000Y-91948000D03*
D12*
X142748000Y-94488000D03*
D14*
X168605200Y-91846400D03*
D15*
X168605200Y-89306400D03*
X168605200Y-86766400D03*
X168605200Y-84226400D03*
X168605200Y-81686400D03*
X168605200Y-79146400D03*
X168605200Y-76606400D03*
X168605200Y-74066400D03*
X168605200Y-71526400D03*
X168605200Y-68986400D03*
X168605200Y-66446400D03*
X168605200Y-63906400D03*
X168605200Y-61366400D03*
X168605200Y-58826400D03*
X168605200Y-56286400D03*
X153365200Y-56286400D03*
X153365200Y-58826400D03*
X153365200Y-61366400D03*
X153365200Y-63906400D03*
X153365200Y-66446400D03*
X153365200Y-68986400D03*
X153365200Y-71526400D03*
X153365200Y-74066400D03*
X153365200Y-76606400D03*
X153365200Y-79146400D03*
X153365200Y-81686400D03*
X153365200Y-84226400D03*
X153365200Y-86766400D03*
X153365200Y-89306400D03*
X153365200Y-91846400D03*
D11*
X90805000Y-87630000D03*
X92075000Y-87630000D03*
X89535000Y-87630000D03*
X100965000Y-87630000D03*
X102235000Y-87630000D03*
X99695000Y-87630000D03*
X111125000Y-87630000D03*
X112395000Y-87630000D03*
X109855000Y-87630000D03*
X121285000Y-87630000D03*
X122555000Y-87630000D03*
X120015000Y-87630000D03*
D16*
X107315000Y-69457000D03*
X114935000Y-69457000D03*
X107315000Y-71997000D03*
X114935000Y-71997000D03*
X107315000Y-74537000D03*
X114935000Y-74537000D03*
X107315000Y-77077000D03*
X114935000Y-77077000D03*
X107315000Y-79617000D03*
X114935000Y-79617000D03*
X127635000Y-69457000D03*
X135255000Y-69457000D03*
X127635000Y-71997000D03*
X135255000Y-71997000D03*
X127635000Y-74537000D03*
X135255000Y-74537000D03*
X127635000Y-77077000D03*
X135255000Y-77077000D03*
X127635000Y-79617000D03*
X135255000Y-79617000D03*
X117475000Y-69457000D03*
X125095000Y-69457000D03*
X117475000Y-71997000D03*
X125095000Y-71997000D03*
X117475000Y-74537000D03*
X125095000Y-74537000D03*
X117475000Y-77077000D03*
X125095000Y-77077000D03*
X117475000Y-79617000D03*
X125095000Y-79617000D03*
X97155000Y-69457000D03*
X104775000Y-69457000D03*
X97155000Y-71997000D03*
X104775000Y-71997000D03*
X97155000Y-74537000D03*
X104775000Y-74537000D03*
X97155000Y-77077000D03*
X104775000Y-77077000D03*
X97155000Y-79617000D03*
X104775000Y-79617000D03*
X86995000Y-69457000D03*
X94615000Y-69457000D03*
X86995000Y-71997000D03*
X94615000Y-71997000D03*
X86995000Y-74537000D03*
X94615000Y-74537000D03*
X86995000Y-77077000D03*
X94615000Y-77077000D03*
X86995000Y-79617000D03*
X94615000Y-79617000D03*
D17*
X152400000Y-97536000D03*
D18*
X149860000Y-97536000D03*
D17*
X86995000Y-62865000D03*
D19*
X89535000Y-62865000D03*
X92075000Y-62865000D03*
X94615000Y-62865000D03*
X104775000Y-55245000D03*
X102235000Y-55245000D03*
X99695000Y-55245000D03*
X97155000Y-55245000D03*
X97155000Y-62865000D03*
X99695000Y-62865000D03*
X102235000Y-62865000D03*
X104775000Y-62865000D03*
X107315000Y-55245000D03*
X109855000Y-55245000D03*
X109855000Y-62865000D03*
X107315000Y-62865000D03*
X94615000Y-55245000D03*
X92075000Y-55245000D03*
X89535000Y-55245000D03*
X86995000Y-55245000D03*
D17*
X112395000Y-62865000D03*
D19*
X114935000Y-62865000D03*
X117475000Y-62865000D03*
X120015000Y-62865000D03*
X130175000Y-55245000D03*
X127635000Y-55245000D03*
X125095000Y-55245000D03*
X122555000Y-55245000D03*
X122555000Y-62865000D03*
X125095000Y-62865000D03*
X127635000Y-62865000D03*
X130175000Y-62865000D03*
X132715000Y-55245000D03*
X135255000Y-55245000D03*
X135255000Y-62865000D03*
X132715000Y-62865000D03*
X120015000Y-55245000D03*
X117475000Y-55245000D03*
X114935000Y-55245000D03*
X112395000Y-55245000D03*
D12*
X146304000Y-57404000D03*
D13*
X141224000Y-57404000D03*
D12*
X143764000Y-59944000D03*
D20*
X86995000Y-92075000D03*
X94615000Y-92075000D03*
X97155000Y-92075000D03*
X104775000Y-92075000D03*
X107315000Y-92075000D03*
X114935000Y-92075000D03*
X117475000Y-92075000D03*
X125095000Y-92075000D03*
X127635000Y-92075000D03*
X135255000Y-92075000D03*
X86995000Y-66040000D03*
X94615000Y-66040000D03*
X97155000Y-66040000D03*
X104775000Y-66040000D03*
X107315000Y-66040000D03*
X114935000Y-66040000D03*
X117475000Y-66040000D03*
X125095000Y-66040000D03*
X127635000Y-66040000D03*
X135255000Y-66040000D03*
X140208000Y-85420200D03*
X147828000Y-85420200D03*
X140208000Y-64084200D03*
X147828000Y-64084200D03*
X140208000Y-70180200D03*
X147828000Y-70180200D03*
X140208000Y-76276200D03*
X147828000Y-76276200D03*
X140208000Y-82372200D03*
X147828000Y-82372200D03*
X140208000Y-79324200D03*
X147828000Y-79324200D03*
X140208000Y-73228200D03*
X147828000Y-73228200D03*
X140208000Y-67132200D03*
X147828000Y-67132200D03*
D21*
X127635000Y-69457000D02*
X127647000Y-69457000D01*
X127647000Y-69457000D02*
X128727200Y-68376800D01*
X117475000Y-69457000D02*
X117487000Y-69457000D01*
X117487000Y-69457000D02*
X118567200Y-68376800D01*
X107315000Y-69457000D02*
X107327000Y-69457000D01*
X107327000Y-69457000D02*
X108407200Y-68376800D01*
X97155000Y-69457000D02*
X97167000Y-69457000D01*
X97167000Y-69457000D02*
X98247200Y-68376800D01*
X86995000Y-69457000D02*
X87007000Y-69457000D01*
X87007000Y-69457000D02*
X88087200Y-68376800D01*
X88087200Y-68376800D02*
X98247200Y-68376800D01*
X98247200Y-68376800D02*
X108407200Y-68376800D01*
X108407200Y-68376800D02*
X118567200Y-68376800D01*
X136093200Y-68376800D02*
X128727200Y-68376800D01*
X118567200Y-68376800D02*
X128727200Y-68376800D01*
X140208000Y-64084200D02*
X140208000Y-64262000D01*
X140208000Y-64262000D02*
X136093200Y-68376800D01*
X135255000Y-69457000D02*
X135255000Y-69469000D01*
X135255000Y-69469000D02*
X136296400Y-70510400D01*
X125095000Y-69457000D02*
X125095000Y-69469000D01*
X125095000Y-69469000D02*
X126136400Y-70510400D01*
X114935000Y-69457000D02*
X114935000Y-69469000D01*
X114935000Y-69469000D02*
X115976400Y-70510400D01*
X104775000Y-69457000D02*
X104775000Y-69469000D01*
X104775000Y-69469000D02*
X105816400Y-70510400D01*
X95656400Y-70510400D02*
X105816400Y-70510400D01*
X105816400Y-70510400D02*
X115976400Y-70510400D01*
X94615000Y-69457000D02*
X94615000Y-69469000D01*
X94615000Y-69469000D02*
X95656400Y-70510400D01*
X126136400Y-70510400D02*
X136296400Y-70510400D01*
X115976400Y-70510400D02*
X126136400Y-70510400D01*
X140208000Y-67132200D02*
X139674600Y-67132200D01*
X139674600Y-67132200D02*
X136296400Y-70510400D01*
X97155000Y-71997000D02*
X97167000Y-71997000D01*
X97167000Y-71997000D02*
X98247200Y-70916800D01*
X107315000Y-71997000D02*
X107327000Y-71997000D01*
X107327000Y-71997000D02*
X108407200Y-70916800D01*
X117475000Y-71997000D02*
X117487000Y-71997000D01*
X117487000Y-71997000D02*
X118567200Y-70916800D01*
X127635000Y-71997000D02*
X127647000Y-71997000D01*
X127647000Y-71997000D02*
X128727200Y-70916800D01*
X86995000Y-71997000D02*
X87007000Y-71997000D01*
X87007000Y-71997000D02*
X88087200Y-70916800D01*
X88087200Y-70916800D02*
X98247200Y-70916800D01*
X98247200Y-70916800D02*
X108407200Y-70916800D01*
X108407200Y-70916800D02*
X118567200Y-70916800D01*
X140208000Y-70180200D02*
X140182600Y-70180200D01*
X140182600Y-70180200D02*
X139446000Y-70916800D01*
X139446000Y-70916800D02*
X128727200Y-70916800D01*
X118567200Y-70916800D02*
X128727200Y-70916800D01*
X140208000Y-73228200D02*
X136474200Y-73228200D01*
X136474200Y-73228200D02*
X136334500Y-73088500D01*
X126174500Y-73088500D02*
X136334500Y-73088500D01*
X116014500Y-73088500D02*
X126174500Y-73088500D01*
X105854500Y-73088500D02*
X116014500Y-73088500D01*
X104775000Y-71997000D02*
X104775000Y-72009000D01*
X104775000Y-72009000D02*
X105854500Y-73088500D01*
X114935000Y-71997000D02*
X114935000Y-72009000D01*
X114935000Y-72009000D02*
X116014500Y-73088500D01*
X125095000Y-71997000D02*
X125095000Y-72009000D01*
X125095000Y-72009000D02*
X126174500Y-73088500D01*
X135255000Y-71997000D02*
X135255000Y-72009000D01*
X135255000Y-72009000D02*
X136334500Y-73088500D01*
X94615000Y-71997000D02*
X94615000Y-72009000D01*
X94615000Y-72009000D02*
X95694500Y-73088500D01*
X95694500Y-73088500D02*
X105854500Y-73088500D01*
X128727200Y-75996800D02*
X139928600Y-75996800D01*
X139928600Y-75996800D02*
X140208000Y-76276200D01*
X127635000Y-77077000D02*
X127647000Y-77077000D01*
X127647000Y-77077000D02*
X128727200Y-75996800D01*
X117475000Y-77077000D02*
X117487000Y-77077000D01*
X117487000Y-77077000D02*
X118567200Y-75996800D01*
X107315000Y-77077000D02*
X107327000Y-77077000D01*
X107327000Y-77077000D02*
X108407200Y-75996800D01*
X97155000Y-77077000D02*
X97167000Y-77077000D01*
X97167000Y-77077000D02*
X98247200Y-75996800D01*
X86995000Y-77077000D02*
X87007000Y-77077000D01*
X87007000Y-77077000D02*
X88087200Y-75996800D01*
X88087200Y-75996800D02*
X98247200Y-75996800D01*
X98247200Y-75996800D02*
X108407200Y-75996800D01*
X108407200Y-75996800D02*
X118567200Y-75996800D01*
X118567200Y-75996800D02*
X128727200Y-75996800D01*
X140208000Y-79324200D02*
X140182600Y-79324200D01*
X140182600Y-79324200D02*
X139026900Y-78168500D01*
X139026900Y-78168500D02*
X136334500Y-78168500D01*
X126174500Y-78168500D02*
X136334500Y-78168500D01*
X104775000Y-77077000D02*
X104775000Y-77089000D01*
X104775000Y-77089000D02*
X105854500Y-78168500D01*
X114935000Y-77077000D02*
X114935000Y-77089000D01*
X114935000Y-77089000D02*
X116014500Y-78168500D01*
X125095000Y-77077000D02*
X125095000Y-77089000D01*
X125095000Y-77089000D02*
X126174500Y-78168500D01*
X135255000Y-77077000D02*
X135255000Y-77089000D01*
X135255000Y-77089000D02*
X136334500Y-78168500D01*
X94615000Y-77077000D02*
X94615000Y-77089000D01*
X94615000Y-77089000D02*
X95694500Y-78168500D01*
X95694500Y-78168500D02*
X105854500Y-78168500D01*
X105854500Y-78168500D02*
X116014500Y-78168500D01*
X116014500Y-78168500D02*
X126174500Y-78168500D01*
X136372600Y-78536800D02*
X140208000Y-82372200D01*
X128727200Y-78536800D02*
X136372600Y-78536800D01*
X118567200Y-78536800D02*
X128727200Y-78536800D01*
X108407200Y-78536800D02*
X118567200Y-78536800D01*
X97155000Y-79617000D02*
X97167000Y-79617000D01*
X97167000Y-79617000D02*
X98247200Y-78536800D01*
X107315000Y-79617000D02*
X107327000Y-79617000D01*
X107327000Y-79617000D02*
X108407200Y-78536800D01*
X117475000Y-79617000D02*
X117487000Y-79617000D01*
X117487000Y-79617000D02*
X118567200Y-78536800D01*
X127635000Y-79617000D02*
X127647000Y-79617000D01*
X127647000Y-79617000D02*
X128727200Y-78536800D01*
X86995000Y-79617000D02*
X87007000Y-79617000D01*
X87007000Y-79617000D02*
X88087200Y-78536800D01*
X88087200Y-78536800D02*
X98247200Y-78536800D01*
X98247200Y-78536800D02*
X108407200Y-78536800D01*
X140208000Y-85420200D02*
X140208000Y-84683600D01*
X140208000Y-84683600D02*
X136245600Y-80721200D01*
X104775000Y-79617000D02*
X104775000Y-79629000D01*
X104775000Y-79629000D02*
X105867200Y-80721200D01*
X114935000Y-79617000D02*
X114935000Y-79629000D01*
X114935000Y-79629000D02*
X116027200Y-80721200D01*
X125095000Y-79617000D02*
X125095000Y-79629000D01*
X125095000Y-79629000D02*
X126187200Y-80721200D01*
X135255000Y-79617000D02*
X135255000Y-79730600D01*
X135255000Y-79730600D02*
X136245600Y-80721200D01*
X94615000Y-79617000D02*
X94615000Y-79629000D01*
X94615000Y-79629000D02*
X95707200Y-80721200D01*
X95707200Y-80721200D02*
X105867200Y-80721200D01*
X105867200Y-80721200D02*
X116027200Y-80721200D01*
X116027200Y-80721200D02*
X126187200Y-80721200D01*
X126187200Y-80721200D02*
X136245600Y-80721200D01*
D22*
X90805000Y-87630000D02*
X90805000Y-88265000D01*
X90805000Y-88265000D02*
X86995000Y-92075000D01*
X142748000Y-94488000D02*
X139700000Y-94488000D01*
X137668000Y-87630000D02*
X135788400Y-85750400D01*
X137668000Y-92456000D02*
X137668000Y-87630000D01*
X139700000Y-94488000D02*
X137668000Y-92456000D01*
X89535000Y-87630000D02*
X89535000Y-86944200D01*
X89535000Y-86944200D02*
X90728800Y-85750400D01*
X90728800Y-85750400D02*
X135788400Y-85750400D01*
D21*
X135026400Y-85750400D02*
X135788400Y-85750400D01*
X131368800Y-85750400D02*
X135026400Y-85750400D01*
X130175000Y-87630000D02*
X130175000Y-86944200D01*
X130175000Y-86944200D02*
X131368800Y-85750400D01*
X120015000Y-87630000D02*
X120015000Y-86944200D01*
X120015000Y-86944200D02*
X121208800Y-85750400D01*
X109855000Y-87630000D02*
X109855000Y-86995000D01*
X109855000Y-86995000D02*
X111099600Y-85750400D01*
X99695000Y-87630000D02*
X99695000Y-86995000D01*
X99695000Y-86995000D02*
X100939600Y-85750400D01*
X89535000Y-86944200D02*
X90728800Y-85750400D01*
X90728800Y-85750400D02*
X100685600Y-85750400D01*
X100685600Y-85750400D02*
X100939600Y-85750400D01*
X100939600Y-85750400D02*
X111099600Y-85750400D01*
X121208800Y-85750400D02*
X131368800Y-85750400D01*
D22*
X100965000Y-87630000D02*
X100965000Y-88265000D01*
X100965000Y-88265000D02*
X97155000Y-92075000D01*
X111125000Y-87630000D02*
X111125000Y-88265000D01*
X111125000Y-88265000D02*
X107315000Y-92075000D01*
X121285000Y-87630000D02*
X121285000Y-88265000D01*
X121285000Y-88265000D02*
X117475000Y-92075000D01*
X131445000Y-87630000D02*
X131445000Y-88265000D01*
X131445000Y-88265000D02*
X127635000Y-92075000D01*
X153365200Y-84226400D02*
X149021800Y-84226400D01*
X149021800Y-84226400D02*
X147828000Y-85420200D01*
X153365200Y-66446400D02*
X150190200Y-66446400D01*
X150190200Y-66446400D02*
X147828000Y-64084200D01*
X153365200Y-71526400D02*
X149174200Y-71526400D01*
X149174200Y-71526400D02*
X147828000Y-70180200D01*
X153365200Y-76606400D02*
X148158200Y-76606400D01*
X148158200Y-76606400D02*
X147828000Y-76276200D01*
X153365200Y-81686400D02*
X148513800Y-81686400D01*
X148513800Y-81686400D02*
X147828000Y-82372200D01*
X153365200Y-79146400D02*
X148005800Y-79146400D01*
X148005800Y-79146400D02*
X147828000Y-79324200D01*
X153365200Y-74066400D02*
X148666200Y-74066400D01*
X148666200Y-74066400D02*
X147828000Y-73228200D01*
X153365200Y-68986400D02*
X149682200Y-68986400D01*
X149682200Y-68986400D02*
X147828000Y-67132200D01*
D23*
X145288000Y-91948000D02*
X143764000Y-90424000D01*
X146304000Y-60960000D02*
X146304000Y-57404000D01*
X143764000Y-63500000D02*
X146304000Y-60960000D01*
X143764000Y-90424000D02*
X143764000Y-63500000D01*
X149860000Y-97536000D02*
X149860000Y-96520000D01*
X149860000Y-96520000D02*
X145288000Y-91948000D01*
D24*
X152400000Y-97536000D02*
X156972000Y-97536000D01*
X163677600Y-56286400D02*
X168605200Y-56286400D01*
X161036000Y-58928000D02*
X163677600Y-56286400D01*
X161036000Y-93472000D02*
X161036000Y-58928000D01*
X156972000Y-97536000D02*
X161036000Y-93472000D01*
M02*
