G04 #@! TF.FileFunction,Copper,L2,Bot,Signal*
%FSLAX46Y46*%
G04 Gerber Fmt 4.6, Leading zero omitted, Abs format (unit mm)*
G04 Created by KiCad (PCBNEW 4.0.4+e1-6308~48~ubuntu15.10.1-stable) date Thu Dec  8 14:38:08 2016*
%MOMM*%
%LPD*%
G01*
G04 APERTURE LIST*
%ADD10C,0.100000*%
%ADD11O,0.899160X1.501140*%
%ADD12C,1.510000*%
%ADD13R,1.510000X1.510000*%
%ADD14R,2.286000X1.574800*%
%ADD15O,2.286000X1.574800*%
%ADD16C,1.524000*%
%ADD17R,2.032000X2.032000*%
%ADD18O,2.032000X2.032000*%
%ADD19C,2.032000*%
%ADD20C,1.727200*%
%ADD21C,0.254000*%
%ADD22C,0.762000*%
%ADD23C,1.270000*%
G04 APERTURE END LIST*
D10*
D11*
X131445000Y-87630000D03*
X132715000Y-87630000D03*
X130175000Y-87630000D03*
D12*
X145288000Y-91948000D03*
D13*
X140208000Y-91948000D03*
D12*
X142748000Y-94488000D03*
D14*
X168605200Y-91846400D03*
D15*
X168605200Y-89306400D03*
X168605200Y-86766400D03*
X168605200Y-84226400D03*
X168605200Y-81686400D03*
X168605200Y-79146400D03*
X168605200Y-76606400D03*
X168605200Y-74066400D03*
X168605200Y-71526400D03*
X168605200Y-68986400D03*
X168605200Y-66446400D03*
X168605200Y-63906400D03*
X168605200Y-61366400D03*
X168605200Y-58826400D03*
X168605200Y-56286400D03*
X153365200Y-56286400D03*
X153365200Y-58826400D03*
X153365200Y-61366400D03*
X153365200Y-63906400D03*
X153365200Y-66446400D03*
X153365200Y-68986400D03*
X153365200Y-71526400D03*
X153365200Y-74066400D03*
X153365200Y-76606400D03*
X153365200Y-79146400D03*
X153365200Y-81686400D03*
X153365200Y-84226400D03*
X153365200Y-86766400D03*
X153365200Y-89306400D03*
X153365200Y-91846400D03*
D11*
X90805000Y-87630000D03*
X92075000Y-87630000D03*
X89535000Y-87630000D03*
X100965000Y-87630000D03*
X102235000Y-87630000D03*
X99695000Y-87630000D03*
X111125000Y-87630000D03*
X112395000Y-87630000D03*
X109855000Y-87630000D03*
X121285000Y-87630000D03*
X122555000Y-87630000D03*
X120015000Y-87630000D03*
D16*
X107315000Y-69457000D03*
X114935000Y-69457000D03*
X107315000Y-71997000D03*
X114935000Y-71997000D03*
X107315000Y-74537000D03*
X114935000Y-74537000D03*
X107315000Y-77077000D03*
X114935000Y-77077000D03*
X107315000Y-79617000D03*
X114935000Y-79617000D03*
X127635000Y-69457000D03*
X135255000Y-69457000D03*
X127635000Y-71997000D03*
X135255000Y-71997000D03*
X127635000Y-74537000D03*
X135255000Y-74537000D03*
X127635000Y-77077000D03*
X135255000Y-77077000D03*
X127635000Y-79617000D03*
X135255000Y-79617000D03*
X117475000Y-69457000D03*
X125095000Y-69457000D03*
X117475000Y-71997000D03*
X125095000Y-71997000D03*
X117475000Y-74537000D03*
X125095000Y-74537000D03*
X117475000Y-77077000D03*
X125095000Y-77077000D03*
X117475000Y-79617000D03*
X125095000Y-79617000D03*
X97155000Y-69457000D03*
X104775000Y-69457000D03*
X97155000Y-71997000D03*
X104775000Y-71997000D03*
X97155000Y-74537000D03*
X104775000Y-74537000D03*
X97155000Y-77077000D03*
X104775000Y-77077000D03*
X97155000Y-79617000D03*
X104775000Y-79617000D03*
X86995000Y-69457000D03*
X94615000Y-69457000D03*
X86995000Y-71997000D03*
X94615000Y-71997000D03*
X86995000Y-74537000D03*
X94615000Y-74537000D03*
X86995000Y-77077000D03*
X94615000Y-77077000D03*
X86995000Y-79617000D03*
X94615000Y-79617000D03*
D17*
X152400000Y-97536000D03*
D18*
X149860000Y-97536000D03*
D17*
X86995000Y-62865000D03*
D19*
X89535000Y-62865000D03*
X92075000Y-62865000D03*
X94615000Y-62865000D03*
X104775000Y-55245000D03*
X102235000Y-55245000D03*
X99695000Y-55245000D03*
X97155000Y-55245000D03*
X97155000Y-62865000D03*
X99695000Y-62865000D03*
X102235000Y-62865000D03*
X104775000Y-62865000D03*
X107315000Y-55245000D03*
X109855000Y-55245000D03*
X109855000Y-62865000D03*
X107315000Y-62865000D03*
X94615000Y-55245000D03*
X92075000Y-55245000D03*
X89535000Y-55245000D03*
X86995000Y-55245000D03*
D17*
X112395000Y-62865000D03*
D19*
X114935000Y-62865000D03*
X117475000Y-62865000D03*
X120015000Y-62865000D03*
X130175000Y-55245000D03*
X127635000Y-55245000D03*
X125095000Y-55245000D03*
X122555000Y-55245000D03*
X122555000Y-62865000D03*
X125095000Y-62865000D03*
X127635000Y-62865000D03*
X130175000Y-62865000D03*
X132715000Y-55245000D03*
X135255000Y-55245000D03*
X135255000Y-62865000D03*
X132715000Y-62865000D03*
X120015000Y-55245000D03*
X117475000Y-55245000D03*
X114935000Y-55245000D03*
X112395000Y-55245000D03*
D12*
X146304000Y-57404000D03*
D13*
X141224000Y-57404000D03*
D12*
X143764000Y-59944000D03*
D20*
X86995000Y-92075000D03*
X94615000Y-92075000D03*
X97155000Y-92075000D03*
X104775000Y-92075000D03*
X107315000Y-92075000D03*
X114935000Y-92075000D03*
X117475000Y-92075000D03*
X125095000Y-92075000D03*
X127635000Y-92075000D03*
X135255000Y-92075000D03*
X86995000Y-66040000D03*
X94615000Y-66040000D03*
X97155000Y-66040000D03*
X104775000Y-66040000D03*
X107315000Y-66040000D03*
X114935000Y-66040000D03*
X117475000Y-66040000D03*
X125095000Y-66040000D03*
X127635000Y-66040000D03*
X135255000Y-66040000D03*
X140208000Y-85420200D03*
X147828000Y-85420200D03*
X140208000Y-64084200D03*
X147828000Y-64084200D03*
X140208000Y-70180200D03*
X147828000Y-70180200D03*
X140208000Y-76276200D03*
X147828000Y-76276200D03*
X140208000Y-82372200D03*
X147828000Y-82372200D03*
X140208000Y-79324200D03*
X147828000Y-79324200D03*
X140208000Y-73228200D03*
X147828000Y-73228200D03*
X140208000Y-67132200D03*
X147828000Y-67132200D03*
D21*
X92075000Y-87630000D02*
X92075000Y-76073000D01*
X92075000Y-76073000D02*
X90539000Y-74537000D01*
X86995000Y-74537000D02*
X90539000Y-74537000D01*
X90539000Y-74537000D02*
X94615000Y-74537000D01*
X86995000Y-77077000D02*
X86995000Y-77089000D01*
X86995000Y-79617000D02*
X86995000Y-79629000D01*
X102235000Y-87630000D02*
X102235000Y-75946000D01*
X102235000Y-75946000D02*
X100826000Y-74537000D01*
X97155000Y-74537000D02*
X100826000Y-74537000D01*
X100826000Y-74537000D02*
X100711000Y-74537000D01*
X100711000Y-74537000D02*
X104775000Y-74537000D01*
X112395000Y-87630000D02*
X112395000Y-75692000D01*
X112395000Y-75692000D02*
X111240000Y-74537000D01*
X107315000Y-74537000D02*
X111240000Y-74537000D01*
X111240000Y-74537000D02*
X114935000Y-74537000D01*
X122555000Y-87630000D02*
X122555000Y-75819000D01*
X122555000Y-75819000D02*
X121273000Y-74537000D01*
X117475000Y-74537000D02*
X121273000Y-74537000D01*
X121273000Y-74537000D02*
X125095000Y-74537000D01*
X132715000Y-87630000D02*
X132715000Y-75946000D01*
X132715000Y-75946000D02*
X131306000Y-74537000D01*
X127635000Y-74537000D02*
X131306000Y-74537000D01*
X131306000Y-74537000D02*
X135255000Y-74537000D01*
X86995000Y-66040000D02*
X86995000Y-62865000D01*
X86995000Y-62865000D02*
X89535000Y-62865000D01*
X89535000Y-62865000D02*
X92075000Y-62865000D01*
X92075000Y-62865000D02*
X94615000Y-62865000D01*
D22*
X143764000Y-59944000D02*
X139954000Y-59944000D01*
X139954000Y-59944000D02*
X135255000Y-55245000D01*
D23*
X86995000Y-55245000D02*
X89535000Y-55245000D01*
X89535000Y-55245000D02*
X92075000Y-55245000D01*
X92075000Y-55245000D02*
X94615000Y-55245000D01*
X94615000Y-55245000D02*
X97155000Y-55245000D01*
X97155000Y-55245000D02*
X99695000Y-55245000D01*
X99695000Y-55245000D02*
X102235000Y-55245000D01*
X102235000Y-55245000D02*
X104775000Y-55245000D01*
X104775000Y-55245000D02*
X107315000Y-55245000D01*
X107315000Y-55245000D02*
X109855000Y-55245000D01*
X109855000Y-55245000D02*
X112395000Y-55245000D01*
X112395000Y-55245000D02*
X114935000Y-55245000D01*
X114935000Y-55245000D02*
X117475000Y-55245000D01*
X117475000Y-55245000D02*
X120015000Y-55245000D01*
X120015000Y-55245000D02*
X122555000Y-55245000D01*
X122555000Y-55245000D02*
X125095000Y-55245000D01*
X125095000Y-55245000D02*
X127635000Y-55245000D01*
X127635000Y-55245000D02*
X130175000Y-55245000D01*
X130175000Y-55245000D02*
X132715000Y-55245000D01*
X132715000Y-55245000D02*
X135255000Y-55245000D01*
D21*
X104775000Y-62865000D02*
X102235000Y-62865000D01*
X102235000Y-62865000D02*
X99695000Y-62865000D01*
X99695000Y-62865000D02*
X97155000Y-62865000D01*
X97155000Y-62865000D02*
X97155000Y-66040000D01*
X114935000Y-62865000D02*
X112395000Y-62865000D01*
X112395000Y-62865000D02*
X109855000Y-62865000D01*
X109855000Y-62865000D02*
X107315000Y-62865000D01*
X107315000Y-62865000D02*
X107315000Y-66040000D01*
X117475000Y-66040000D02*
X117475000Y-62865000D01*
X117475000Y-62865000D02*
X120015000Y-62865000D01*
X120015000Y-62865000D02*
X122555000Y-62865000D01*
X122555000Y-62865000D02*
X125095000Y-62865000D01*
X135255000Y-62865000D02*
X132715000Y-62865000D01*
X132715000Y-62865000D02*
X130175000Y-62865000D01*
X130175000Y-62865000D02*
X127635000Y-62865000D01*
X127635000Y-62865000D02*
X127635000Y-66040000D01*
X153365200Y-86766400D02*
X149047200Y-86766400D01*
X97739200Y-88950800D02*
X94615000Y-92075000D01*
X133451600Y-88950800D02*
X97739200Y-88950800D01*
X135382000Y-87020400D02*
X133451600Y-88950800D01*
X148793200Y-87020400D02*
X135382000Y-87020400D01*
X149047200Y-86766400D02*
X148793200Y-87020400D01*
X153365200Y-89306400D02*
X150164800Y-89306400D01*
X107442000Y-89408000D02*
X104775000Y-92075000D01*
X133654800Y-89408000D02*
X107442000Y-89408000D01*
X135585200Y-87477600D02*
X133654800Y-89408000D01*
X148336000Y-87477600D02*
X135585200Y-87477600D01*
X150164800Y-89306400D02*
X148336000Y-87477600D01*
X153365200Y-91846400D02*
X152044400Y-91846400D01*
X117144800Y-89865200D02*
X114935000Y-92075000D01*
X133858000Y-89865200D02*
X117144800Y-89865200D01*
X135788400Y-87934800D02*
X133858000Y-89865200D01*
X148132800Y-87934800D02*
X135788400Y-87934800D01*
X152044400Y-91846400D02*
X148132800Y-87934800D01*
X168605200Y-81686400D02*
X165760400Y-81686400D01*
X126850798Y-90319202D02*
X125095000Y-92075000D01*
X134064398Y-90319202D02*
X126850798Y-90319202D01*
X135991600Y-88392000D02*
X134064398Y-90319202D01*
X147675600Y-88392000D02*
X135991600Y-88392000D01*
X152450800Y-93167200D02*
X147675600Y-88392000D01*
X154279600Y-93167200D02*
X152450800Y-93167200D01*
X165760400Y-81686400D02*
X154279600Y-93167200D01*
X135255000Y-92075000D02*
X135255000Y-92071802D01*
X135255000Y-92071802D02*
X138480800Y-88846002D01*
X163880800Y-84226400D02*
X168605200Y-84226400D01*
X154482800Y-93624400D02*
X163880800Y-84226400D01*
X152247600Y-93624400D02*
X154482800Y-93624400D01*
X147469202Y-88846002D02*
X152247600Y-93624400D01*
X138480800Y-88846002D02*
X147469202Y-88846002D01*
X94615000Y-66040000D02*
X94615000Y-66116200D01*
X94615000Y-66116200D02*
X96367600Y-67868800D01*
X96367600Y-67868800D02*
X98602800Y-67868800D01*
X98602800Y-67868800D02*
X103987600Y-73253600D01*
X103987600Y-73253600D02*
X136296400Y-73253600D01*
X136296400Y-73253600D02*
X137414000Y-74371200D01*
X137414000Y-74371200D02*
X137414000Y-76149200D01*
X137414000Y-76149200D02*
X139090400Y-77825600D01*
X139090400Y-77825600D02*
X151892000Y-77825600D01*
X151892000Y-77825600D02*
X151942800Y-77876400D01*
X151942800Y-77876400D02*
X164490400Y-77876400D01*
X164490400Y-77876400D02*
X165760400Y-79146400D01*
X165760400Y-79146400D02*
X168605200Y-79146400D01*
X104775000Y-66040000D02*
X104775000Y-66065400D01*
X104775000Y-66065400D02*
X106476800Y-67767200D01*
X106476800Y-67767200D02*
X110591600Y-67767200D01*
X110591600Y-67767200D02*
X113538000Y-70713600D01*
X113538000Y-70713600D02*
X136804400Y-70713600D01*
X136804400Y-70713600D02*
X138277600Y-72186800D01*
X138277600Y-72186800D02*
X138277600Y-73710800D01*
X138277600Y-73710800D02*
X139293600Y-74726800D01*
X139293600Y-74726800D02*
X151485600Y-74726800D01*
X151485600Y-74726800D02*
X152095200Y-75336400D01*
X152095200Y-75336400D02*
X165354000Y-75336400D01*
X165354000Y-75336400D02*
X166624000Y-76606400D01*
X166624000Y-76606400D02*
X168605200Y-76606400D01*
X114935000Y-66040000D02*
X114935000Y-66065400D01*
X114935000Y-66065400D02*
X116890800Y-68021200D01*
X116890800Y-68021200D02*
X137210800Y-68021200D01*
X137210800Y-68021200D02*
X138633200Y-69443600D01*
X138633200Y-69443600D02*
X138633200Y-70815200D01*
X138633200Y-70815200D02*
X139547600Y-71729600D01*
X139547600Y-71729600D02*
X151333200Y-71729600D01*
X151333200Y-71729600D02*
X152400000Y-72796400D01*
X152400000Y-72796400D02*
X167335200Y-72796400D01*
X167335200Y-72796400D02*
X168605200Y-74066400D01*
X125095000Y-66040000D02*
X125095000Y-66065400D01*
X125095000Y-66065400D02*
X126593600Y-67564000D01*
X126593600Y-67564000D02*
X138430000Y-67564000D01*
X138430000Y-67564000D02*
X139547600Y-68681600D01*
X139547600Y-68681600D02*
X151231600Y-68681600D01*
X151231600Y-68681600D02*
X152196800Y-67716400D01*
X152196800Y-67716400D02*
X164795200Y-67716400D01*
X164795200Y-67716400D02*
X168605200Y-71526400D01*
X135255000Y-66040000D02*
X138074400Y-66040000D01*
X164795200Y-65176400D02*
X168605200Y-68986400D01*
X152044400Y-65176400D02*
X164795200Y-65176400D01*
X151638000Y-65582800D02*
X152044400Y-65176400D01*
X138531600Y-65582800D02*
X151638000Y-65582800D01*
X138074400Y-66040000D02*
X138531600Y-65582800D01*
D22*
X168605200Y-58826400D02*
X162153600Y-58826400D01*
X157073600Y-63906400D02*
X153365200Y-63906400D01*
X162153600Y-58826400D02*
X157073600Y-63906400D01*
X153365200Y-63906400D02*
X152806400Y-63906400D01*
X152806400Y-63906400D02*
X146304000Y-57404000D01*
M02*
